<svg xmlns="http://www.w3.org/2000/svg" width="21.001" height="40.99" viewBox="0 0 21.001 40.99">
  <path id="Subtraction_2" data-name="Subtraction 2" d="M-9956-1876.009h0V-1917a21.981,21.981,0,0,1,8.188,1.712,21.348,21.348,0,0,1,6.674,4.41,20.383,20.383,0,0,1,4.492,6.474,19.656,19.656,0,0,1,1.647,7.9,19.656,19.656,0,0,1-1.647,7.9,20.328,20.328,0,0,1-4.492,6.474,21.367,21.367,0,0,1-6.674,4.413A21.98,21.98,0,0,1-9956-1876.009Zm6.006-27.992a1,1,0,0,0-.711.292.993.993,0,0,0-.3.707,1,1,0,0,0,.3.712l5.319,5.32-5.317,5.322a.99.99,0,0,0-.294.7,1.008,1.008,0,0,0,.294.717,1.021,1.021,0,0,0,.712.292,1.023,1.023,0,0,0,.713-.292l6.054-6.069a1,1,0,0,0-.027-1.384l-6.029-6.027A1.01,1.01,0,0,0-9949.992-1904Z" transform="translate(9956 1916.999)" fill="#253455"/>
</svg>
