<svg xmlns="http://www.w3.org/2000/svg" width="32.001" height="61.99" viewBox="0 0 32.001 61.99">
  <path id="Subtraction_2" data-name="Subtraction 2" d="M0,0H0V61.99A33.712,33.712,0,0,0,12.476,59.4a32.551,32.551,0,0,0,10.169-6.67,30.823,30.823,0,0,0,6.845-9.791,29.672,29.672,0,0,0,0-23.889,30.739,30.739,0,0,0-6.845-9.791A32.579,32.579,0,0,0,12.476,2.588,33.711,33.711,0,0,0,0,0ZM9.155,42.333a1.535,1.535,0,0,1-1.083-.442,1.5,1.5,0,0,1,0-2.146L16.177,31.7l-8.1-8.049a1.491,1.491,0,0,1-.448-1.062A1.518,1.518,0,0,1,8.074,21.5a1.554,1.554,0,0,1,2.171,0l9.225,9.178a1.5,1.5,0,0,1-.042,2.093l-9.187,9.114A1.545,1.545,0,0,1,9.155,42.333Z" transform="translate(32.001 61.99) rotate(180)" fill="#253455"/>
</svg>
