<svg xmlns="http://www.w3.org/2000/svg" width="31.999" height="61.993" viewBox="0 0 31.999 61.993">
  <path id="Subtraction_2" data-name="Subtraction 2" d="M0,61.992V0A33.772,33.772,0,0,1,12.479,2.588,32.591,32.591,0,0,1,22.647,9.26a30.824,30.824,0,0,1,6.845,9.791,29.7,29.7,0,0,1,0,23.889,30.824,30.824,0,0,1-6.845,9.791A32.59,32.59,0,0,1,12.479,59.4,33.773,33.773,0,0,1,0,61.992ZM17.585,21.063a1.534,1.534,0,0,0-1.085.443L7.274,30.681a1.507,1.507,0,0,0,.045,2.1l9.187,9.112a1.553,1.553,0,0,0,2.17,0,1.49,1.49,0,0,0,.45-1.067,1.505,1.505,0,0,0-.45-1.08L10.566,31.7l8.1-8.049a1.49,1.49,0,0,0,.45-1.066,1.507,1.507,0,0,0-.45-1.081A1.53,1.53,0,0,0,17.585,21.063Z" transform="translate(31.999 61.992) rotate(180)" fill="#253455"/>
</svg>
