<svg xmlns="http://www.w3.org/2000/svg" width="21.001" height="40.99" viewBox="0 0 21.001 40.99">
  <path id="Subtraction_2" data-name="Subtraction 2" d="M-9956-1876.009h0V-1917a21.981,21.981,0,0,1,8.188,1.712,21.348,21.348,0,0,1,6.674,4.41,20.383,20.383,0,0,1,4.492,6.474,19.656,19.656,0,0,1,1.647,7.9,19.656,19.656,0,0,1-1.647,7.9,20.328,20.328,0,0,1-4.492,6.474,21.367,21.367,0,0,1-6.674,4.413A21.98,21.98,0,0,1-9956-1876.009Zm12.032-27.992a1,1,0,0,0-.711.292l-6.029,6.027a1,1,0,0,0-.03,1.384l6.055,6.069a1.021,1.021,0,0,0,.712.292,1.021,1.021,0,0,0,.712-.292,1,1,0,0,0,.295-.717.989.989,0,0,0-.295-.7l-5.316-5.322,5.319-5.32a1,1,0,0,0,.3-.712.989.989,0,0,0-.3-.707A1,1,0,0,0-9943.966-1904Z" transform="translate(9956 1916.999)" fill="#253455"/>
</svg>
