<svg xmlns="http://www.w3.org/2000/svg" width="65.552" height="65.552" viewBox="0 0 65.552 65.552">
  <path id="Icon_ionic-ios-close-circle" data-name="Icon ionic-ios-close-circle" d="M36.151,3.375A32.776,32.776,0,1,0,68.927,36.151,32.771,32.771,0,0,0,36.151,3.375Zm8.3,44.641-8.3-8.3-8.3,8.3a2.518,2.518,0,1,1-3.561-3.561l8.3-8.3-8.3-8.3a2.518,2.518,0,0,1,3.561-3.561l8.3,8.3,8.3-8.3a2.518,2.518,0,0,1,3.561,3.561l-8.3,8.3,8.3,8.3a2.53,2.53,0,0,1,0,3.561A2.5,2.5,0,0,1,44.455,48.016Z" transform="translate(-3.375 -3.375)" fill="#fff"/>
</svg>
