<svg xmlns="http://www.w3.org/2000/svg" width="39.746" height="30" viewBox="0 0 39.746 30">
  <path id="Path_224" data-name="Path 224" d="M1562.675,1610.131a18.782,18.782,0,0,0-3.756-11.29,32.339,32.339,0,0,0-9.669-8.71l-2.876,2.58a16.387,16.387,0,0,1,2.956,3.71,9.982,9.982,0,0,1,1.518,4.355,9.606,9.606,0,0,0-5.274,3.387,9.234,9.234,0,0,0-2.077,5.968,9.928,9.928,0,0,0,2.8,7.016,9.222,9.222,0,0,0,13.584,0A9.939,9.939,0,0,0,1562.675,1610.131Zm20.569,0a18.783,18.783,0,0,0-3.755-11.29,32.345,32.345,0,0,0-9.669-8.71l-3.2,2.58a16.4,16.4,0,0,1,2.957,3.71,12.082,12.082,0,0,1,1.678,4.355,9.606,9.606,0,0,0-5.274,3.387,9.234,9.234,0,0,0-2.078,5.968,9.929,9.929,0,0,0,2.8,7.016,8.964,8.964,0,0,0,6.792,2.984,9.221,9.221,0,0,0,6.872-2.984A9.786,9.786,0,0,0,1583.244,1610.131Z" transform="translate(-1543.497 -1590.131)" fill="#00aec7"/>
</svg>
