<svg xmlns="http://www.w3.org/2000/svg" width="40.114" height="30" viewBox="0 0 40.114 30">
  <path id="Path_251" data-name="Path 251" d="M1562.852,1610.131a18.67,18.67,0,0,0-3.791-11.29,32.539,32.539,0,0,0-9.758-8.71l-2.9,2.581a16.4,16.4,0,0,1,2.984,3.71,9.924,9.924,0,0,1,1.532,4.355,9.7,9.7,0,0,0-5.322,3.387,9.18,9.18,0,0,0-2.1,5.968,9.879,9.879,0,0,0,2.823,7.016,9.366,9.366,0,0,0,13.71,0A9.89,9.89,0,0,0,1562.852,1610.131Zm20.759,0a18.669,18.669,0,0,0-3.79-11.29,32.54,32.54,0,0,0-9.758-8.71l-3.226,2.581a16.4,16.4,0,0,1,2.984,3.71,12.008,12.008,0,0,1,1.693,4.355,9.7,9.7,0,0,0-5.322,3.387,9.181,9.181,0,0,0-2.1,5.968,9.88,9.88,0,0,0,2.823,7.016,9.085,9.085,0,0,0,6.855,2.984,9.347,9.347,0,0,0,6.936-2.984A9.74,9.74,0,0,0,1583.611,1610.131Z" transform="translate(-1543.497 -1590.131)" fill="#ffac02"/>
</svg>
