<svg xmlns="http://www.w3.org/2000/svg" width="65.197" height="48.758" viewBox="0 0 65.197 48.758">
  <path id="Path_219" data-name="Path 219" d="M1577.237,1606.384a30.343,30.343,0,0,0,6.16,18.35,52.886,52.886,0,0,0,15.86,14.156l4.719-4.194a26.67,26.67,0,0,1-4.85-6.029,16.125,16.125,0,0,1-2.49-7.078,15.772,15.772,0,0,0,8.65-5.5,14.922,14.922,0,0,0,3.408-9.7,16.057,16.057,0,0,0-4.587-11.4,15.223,15.223,0,0,0-22.282,0A16.075,16.075,0,0,0,1577.237,1606.384Zm-33.74,0a30.341,30.341,0,0,0,6.16,18.35,52.891,52.891,0,0,0,15.859,14.156l5.243-4.194a26.676,26.676,0,0,1-4.85-6.029,19.513,19.513,0,0,1-2.752-7.078,15.774,15.774,0,0,0,8.65-5.5,14.922,14.922,0,0,0,3.408-9.7,16.057,16.057,0,0,0-4.587-11.4,14.764,14.764,0,0,0-11.141-4.849,15.191,15.191,0,0,0-11.272,4.849A15.83,15.83,0,0,0,1543.5,1606.384Z" transform="translate(-1543.497 -1590.131)" fill="#00aec7"/>
</svg>
