<svg xmlns="http://www.w3.org/2000/svg" width="125.994" height="131.357" viewBox="0 0 125.994 131.357">
  <g id="Group_649" data-name="Group 649" transform="translate(-31 -188.568)">
    <line id="Line_10" data-name="Line 10" y2="22.908" transform="translate(93.997 188.568)" fill="none" stroke="#ffac02" stroke-linejoin="round" stroke-width="5"/>
    <line id="Line_11" data-name="Line 11" x2="16.198" y2="16.198" transform="translate(49.452 207.02)" fill="none" stroke="#ffac02" stroke-linejoin="round" stroke-width="5"/>
    <line id="Line_12" data-name="Line 12" x2="22.908" transform="translate(31 251.565)" fill="none" stroke="#ffac02" stroke-linejoin="round" stroke-width="5"/>
    <line id="Line_13" data-name="Line 13" y1="16.198" x2="16.198" transform="translate(49.452 279.913)" fill="none" stroke="#ffac02" stroke-linejoin="round" stroke-width="5"/>
    <line id="Line_14" data-name="Line 14" x1="16.198" y1="16.198" transform="translate(122.344 279.913)" fill="none" stroke="#ffac02" stroke-linejoin="round" stroke-width="5"/>
    <line id="Line_15" data-name="Line 15" x1="22.908" transform="translate(134.086 251.565)" fill="none" stroke="#ffac02" stroke-linejoin="round" stroke-width="5"/>
    <line id="Line_16" data-name="Line 16" x1="16.198" y2="16.198" transform="translate(122.344 207.02)" fill="none" stroke="#ffac02" stroke-linejoin="round" stroke-width="5"/>
    <path id="Path_211" data-name="Path 211" d="M87.453,270.568H84.59l-2.864,2.864H70.272l-2.864-2.864H64.545" transform="translate(17.998 43.994)" fill="none" stroke="#ffac02" stroke-linejoin="round" stroke-width="5"/>
    <line id="Line_17" data-name="Line 17" x2="34.362" transform="translate(76.816 297.381)" fill="none" stroke="#ffac02" stroke-linejoin="round" stroke-width="5"/>
    <line id="Line_18" data-name="Line 18" x2="28.635" transform="translate(79.68 305.972)" fill="none" stroke="#ffac02" stroke-linejoin="round" stroke-width="5"/>
    <path id="Path_212" data-name="Path 212" d="M96.316,279.656v-5.727a19.06,19.06,0,0,1,5.389-13.6c5.412-5.519,8.929-12.346,8.929-20.758a28.635,28.635,0,1,0-57.269,0c0,8.412,3.517,15.239,8.929,20.758a19.06,19.06,0,0,1,5.389,13.6v5.727" transform="translate(11.999 11.999)" fill="none" stroke="#ffac02" stroke-linejoin="round" stroke-width="5"/>
    <path id="Path_213" data-name="Path 213" d="M72,240.75" transform="translate(21.997 27.996)" fill="none" stroke="#ffac02" stroke-linejoin="round" stroke-width="5"/>
    <path id="Path_214" data-name="Path 214" d="M72,255.659" transform="translate(21.997 35.995)" fill="none" stroke="#ffac02" stroke-linejoin="round" stroke-width="5"/>
    <path id="Path_215" data-name="Path 215" d="M75.727,237.023" transform="translate(23.997 25.997)" fill="none" stroke="#ffac02" stroke-linejoin="round" stroke-width="5"/>
    <path id="Path_216" data-name="Path 216" d="M68.273,237.023" transform="translate(19.998 25.997)" fill="none" stroke="#ffac02" stroke-linejoin="round" stroke-width="5"/>
    <line id="Line_19" data-name="Line 19" x2="4.383" y2="10.582" transform="translate(74.272 203.946)" fill="none" stroke="#ffac02" stroke-linejoin="round" stroke-width="5"/>
    <line id="Line_20" data-name="Line 20" x2="10.582" y2="4.383" transform="translate(46.378 231.841)" fill="none" stroke="#ffac02" stroke-linejoin="round" stroke-width="5"/>
    <line id="Line_21" data-name="Line 21" y1="4.383" x2="10.582" transform="translate(46.378 266.907)" fill="none" stroke="#ffac02" stroke-linejoin="round" stroke-width="5"/>
    <line id="Line_22" data-name="Line 22" x1="10.582" y1="4.383" transform="translate(131.035 266.907)" fill="none" stroke="#ffac02" stroke-linejoin="round" stroke-width="5"/>
    <line id="Line_23" data-name="Line 23" x1="10.582" y2="4.383" transform="translate(131.035 231.841)" fill="none" stroke="#ffac02" stroke-linejoin="round" stroke-width="5"/>
    <line id="Line_24" data-name="Line 24" x1="4.383" y2="10.582" transform="translate(109.339 203.946)" fill="none" stroke="#ffac02" stroke-linejoin="round" stroke-width="5"/>
  </g>
</svg>
