<svg xmlns="http://www.w3.org/2000/svg" width="106.738" height="110.213" viewBox="0 0 106.738 110.213">
  <path id="Path_220" data-name="Path 220" d="M333.669,231.157s23.046-22.807,23.816-23.575a2.683,2.683,0,0,0-.005-3.822c-1.34-1.34-31.63-31.146-31.63-31.146L353.121,146.1a19.746,19.746,0,0,1,13.817-5.361,21.573,21.573,0,0,1,15.2,6.186,20.644,20.644,0,0,1,6.245,14.8,18.876,18.876,0,0,1-5.4,13.443l-19.309,18.807a2.686,2.686,0,1,0,3.747,3.849L386.736,179a24.282,24.282,0,0,0,7.016-17.282,25.978,25.978,0,0,0-7.851-18.63,26.916,26.916,0,0,0-18.963-7.728,25.154,25.154,0,0,0-17.574,6.892s-28.52,27.711-29.226,28.42a2.728,2.728,0,0,0-.013,3.838c1.367,1.365,31.649,31.163,31.649,31.163L329.9,227.333c-4.961,4.875-11.082,7.561-17.238,7.561a20.3,20.3,0,0,1-14.3-5.893,19.454,19.454,0,0,1-5.968-13.94c.005-5.987,2.726-11.955,7.652-16.787l14.238-13.822a2.686,2.686,0,0,0-3.742-3.854l-14.249,13.83c-5.974,5.863-9.267,13.188-9.272,20.631a24.777,24.777,0,0,0,7.577,17.773,25.629,25.629,0,0,0,18.066,7.435C320.231,240.266,327.69,237.032,333.669,231.157Zm9.057-58.659,14.327-14.091c3.417-3.363,8.635-6.3,13.051-4.445a2.685,2.685,0,0,0,2.082-4.95c-6.838-2.871-14.249.991-18.9,5.565l-14.327,14.093a2.685,2.685,0,1,0,3.766,3.827Zm49.623,43.534a29.513,29.513,0,0,1-53.365,17.413l3.876-3.814a24.13,24.13,0,0,0,43.685-9.135H352.138l5.458-5.372h29.333a24.16,24.16,0,0,0-10.223-18.815l3.879-3.817A29.5,29.5,0,0,1,392.35,216.033Z" transform="translate(-287.014 -135.365)" fill="#ffac02"/>
</svg>
