<svg xmlns="http://www.w3.org/2000/svg" width="151.555" height="151.259" viewBox="0 0 151.555 151.259">
  <g id="Group_652" data-name="Group 652" transform="translate(-39.52 -360.825)">
    <g id="Group_604" data-name="Group 604" transform="translate(42.349 428.787)">
      <path id="Path_209" data-name="Path 209" d="M28.45,0A28.45,28.45,0,1,1,0,28.45,28.45,28.45,0,0,1,28.45,0Z" transform="translate(0 40.235) rotate(-45)" fill="none" stroke="#ffac02" stroke-width="4"/>
      <circle id="Ellipse_19" data-name="Ellipse 19" cx="4.098" cy="4.098" r="4.098" transform="translate(25.001 29.708)" fill="#ffac02"/>
      <circle id="Ellipse_20" data-name="Ellipse 20" cx="4.098" cy="4.098" r="4.098" transform="translate(46.29 29.708)" fill="#ffac02"/>
      <g id="Group_603" data-name="Group 603" transform="translate(24.217 47.331)">
        <path id="Path_203" data-name="Path 203" d="M697.234,556.116q-7.629,0-15.866-6.325a1.2,1.2,0,0,1,1.464-1.9c10.067,7.746,19.039,7.768,27.428.067a1.2,1.2,0,1,1,1.624,1.769C707.242,553.984,702.345,556.116,697.234,556.116Z" transform="translate(-680.899 -547.639)" fill="#ffac02"/>
      </g>
    </g>
    <g id="Group_606" data-name="Group 606" transform="translate(107.778 363.654)">
      <path id="Path_208" data-name="Path 208" d="M28.45,0A28.45,28.45,0,1,1,0,28.45,28.45,28.45,0,0,1,28.45,0Z" transform="translate(0 40.235) rotate(-45)" fill="none" stroke="#ffac02" stroke-width="4"/>
      <circle id="Ellipse_22" data-name="Ellipse 22" cx="4.098" cy="4.098" r="4.098" transform="translate(25.001 29.708)" fill="#ffac02"/>
      <circle id="Ellipse_23" data-name="Ellipse 23" cx="4.098" cy="4.098" r="4.098" transform="translate(46.29 29.708)" fill="#ffac02"/>
      <g id="Group_605" data-name="Group 605" transform="translate(24.217 49.732)">
        <path id="Path_204" data-name="Path 204" d="M440.138,559.322H411.166a1.2,1.2,0,1,1,0-2.4h28.972a1.2,1.2,0,1,1,0,2.4Z" transform="translate(-409.966 -556.921)" fill="#ffac02"/>
      </g>
    </g>
    <g id="Group_608" data-name="Group 608" transform="translate(42.349 363.654)">
      <circle id="Ellipse_24" data-name="Ellipse 24" cx="28.45" cy="28.45" r="28.45" transform="translate(0 40.235) rotate(-45)" fill="none" stroke="#ffac02" stroke-miterlimit="10" stroke-width="4"/>
      <circle id="Ellipse_25" data-name="Ellipse 25" cx="4.098" cy="4.098" r="4.098" transform="translate(25.001 29.708)" fill="#ffac02"/>
      <circle id="Ellipse_26" data-name="Ellipse 26" cx="4.098" cy="4.098" r="4.098" transform="translate(46.29 29.708)" fill="#ffac02"/>
      <g id="Group_607" data-name="Group 607" transform="translate(24.217 47.343)">
        <path id="Path_205" data-name="Path 205" d="M140.235,556.159a1.2,1.2,0,0,1-.733-2.152c10.989-8.456,21.256-8.433,30.515.067a1.2,1.2,0,1,1-1.624,1.769c-8.389-7.7-17.36-7.68-27.428.067A1.2,1.2,0,0,1,140.235,556.159Z" transform="translate(-139.034 -547.682)" fill="#ffac02"/>
      </g>
    </g>
    <g id="Group_609" data-name="Group 609" transform="translate(107.778 428.787)">
      <path id="Path_210" data-name="Path 210" d="M28.45,0A28.45,28.45,0,1,1,0,28.45,28.45,28.45,0,0,1,28.45,0Z" transform="translate(0 40.235) rotate(-45)" fill="none" stroke="#ffac02" stroke-width="4"/>
      <circle id="Ellipse_28" data-name="Ellipse 28" cx="4.098" cy="4.098" r="4.098" transform="translate(25.001 29.708)" fill="#ffac02"/>
      <circle id="Ellipse_29" data-name="Ellipse 29" cx="4.098" cy="4.098" r="4.098" transform="translate(46.29 29.708)" fill="#ffac02"/>
      <path id="Path_206" data-name="Path 206" d="M951.522,543.926a16.1,16.1,0,0,0,31.533,0Q967.951,552.3,951.522,543.926Z" transform="translate(-927.385 -497.555)" fill="#ffac02"/>
    </g>
  </g>
</svg>
