<svg xmlns="http://www.w3.org/2000/svg" width="191.706" height="93.26" viewBox="0 0 191.706 93.26">
  <g id="Group_570" data-name="Group 570" transform="translate(-1665 -128.235)">
    <path id="Path_191" data-name="Path 191" d="M362.268,325.874a27.748,27.748,0,0,1-8.455,9.244c-7.287,5.281-16.068,8.6-23.4,11.165-7.723,2.521-14.116,4.467-18.408,5.757,3.039-3.406,7.749-8.759,13.532-15.433,5.265-5.87,11.562-12.247,19.622-16.867,2-1.157,4.165-2.289,6.33-3.275a10.667,10.667,0,0,1,4.616-.859c3.107-.019,6.755,1.854,7.78,3.48.49.907.475.44.411,1.151a20.266,20.266,0,0,1-2.023,5.637M378.76,308.5c-6.322-8.317-15.3-10.85-23.566-10.35a26.249,26.249,0,0,0-11.563,3.72,66.831,66.831,0,0,0-7.451,5.347c-9.328,7.68-14.683,16.944-18.245,24.327a227.351,227.351,0,0,0-8.594,21.291q-.311.91-.528,1.575c.3.03.612.07.953.106a162.566,162.566,0,0,0,22.325.739c8.281-.514,18.489-1.48,29.6-6.9a39.4,39.4,0,0,0,15.468-13.345,34.28,34.28,0,0,0,4.688-10.534c1.6-5.075.079-11.99-3.084-15.978" transform="translate(1474.221 -135.407)" fill="#fff"/>
    <path id="Path_192" data-name="Path 192" d="M278.956,336.316c-3.018-4.285-7.5-10.364-12.585-17.864-4.935-7.428-11.019-16.623-14.213-26.129-2.887-10.469-1.052-13.318,7.67-17.576,3.183-1.146,5.319-.813,8.786,1.244,3.3,2.075,6.438,6.047,8.531,10.191,3.97,7.748,4.539,19.134,4.675,27.767-.112,11.257-.306,20.171-.378,25.272a38.164,38.164,0,0,1-2.487-2.9m16.05-56.841c-2.2-7.148-5.944-14.558-13.168-20.606-6.752-6.2-19.678-9.612-29.755-5.36a39.06,39.06,0,0,0-12.4,7.591,30.123,30.123,0,0,0-8.468,13.062c-3.171,10.693.278,19.65,3.506,25.915,7.136,12.632,16.013,19.995,23.39,26.09a182.777,182.777,0,0,0,18.425,12.728,52.98,52.98,0,0,0,4.867,2.489c.4.176.744.328,1.039.448.064-.119.13-.255.193-.389A198.186,198.186,0,0,0,293,315.61c2.463-9.346,6-20.683,2-36.135" transform="translate(1494.621 -123.383)" fill="#fff"/>
    <path id="Path_193" data-name="Path 193" d="M236.131,348.543c-10.23-4.461-19.3-16.9-32.241-28.308-5.462-4.885-10.463-12.084-20.4-16.544-9.245-2.8-16.056-1.783-21.391.488-6.215,2.072-10.06,8.555-12.447,14.99a1,1,0,0,0,.039.816c.149.171.426.32,1.3-.014a42.814,42.814,0,0,1,9.166-1.954,34.645,34.645,0,0,1,16.343,2.509c4.683,1.287,10.5,6.541,17.557,11.781,6.751,5.016,12.3,9.348,19.017,14.2,6.469,4.718,13.548,8.552,20.107,10.114,13.3,3.2,21.7-.457,21.431-1.609-.069-1.779-8.552-1.509-18.48-6.474" transform="translate(1515.414 -136.415)" fill="#fff"/>
  </g>
</svg>
