<svg xmlns="http://www.w3.org/2000/svg" width="45.157" height="38.089" viewBox="0 0 45.157 38.089">
  <path id="icon-don" d="M42.488,7.908a10.981,10.981,0,0,0-15,.745l-4.1,4.1-3.447-3.54A10.8,10.8,0,0,0,4.669,24.489L22.088,41.908a3.261,3.261,0,0,0,4.658,0,3.19,3.19,0,0,0,1.118-2.515V39.3a3.358,3.358,0,0,0,2.515-1.118,3.234,3.234,0,0,0,.932-2.329,3.483,3.483,0,0,0,2.329-.932,3.062,3.062,0,0,0,1.118-2.515v-.093A3.327,3.327,0,0,0,37.272,31.2a3.162,3.162,0,0,0,.932-2.515l4.751-5.123a10.594,10.594,0,0,0-.466-15.649ZM36.061,29.985a1.468,1.468,0,0,1-2.236.186L27.77,24.3a.922.922,0,1,0-1.3,1.3l6.055,6.055c.093.093.186.186.279.186a1.492,1.492,0,0,1-.466,1.77,1.462,1.462,0,0,1-2.049,0l-6.055-6.055a.922.922,0,1,0-1.3,1.3l6.055,6.055a1.462,1.462,0,0,1,0,2.049,1.433,1.433,0,0,1-2.142.186L20.784,31.1a.922.922,0,1,0-1.3,1.3l6.055,6.055a1.37,1.37,0,0,1-.186,2.142,1.462,1.462,0,0,1-2.049,0L5.973,23.185A8.958,8.958,0,0,1,18.642,10.516l3.54,3.54-7.173,7.359a3.165,3.165,0,0,0-.745,2.422,2.745,2.745,0,0,0,4.751,1.4L23.951,20.3c.838-.932,1.77-.652,3.819-.559l8.2,8.2A1.386,1.386,0,0,1,36.061,29.985Zm5.682-7.545-4.192,4.471c-.373-.373-6.614-6.707-6.986-7.079h.559a.932.932,0,1,0,0-1.863c-5.5-.186-6.986-.652-8.477,1.025L17.71,23.93a.916.916,0,0,1-1.584-.466.724.724,0,0,1,.186-.745L24.044,14.8,28.8,10.051A9.212,9.212,0,0,1,41.277,9.4a8.931,8.931,0,0,1,.466,13.041Z" transform="translate(-1.275 -5.048)" fill="#253455" stroke="#253455" stroke-width="0.5"/>
</svg>
