<svg id="Logo_ARC" data-name="Logo ARC" xmlns="http://www.w3.org/2000/svg" width="300.374" height="80.297" viewBox="0 0 300.374 80.297">
  <g id="Group_6" data-name="Group 6" transform="translate(10.584 5.463)">
    <g id="Group_1" data-name="Group 1">
      <path id="Path_1" data-name="Path 1" d="M27.7,45.267v2.817h4.8v3.708H27.7v6.617h-4.38V41.558H33v3.709Z" transform="translate(-23.322 -40.999)" fill="#00a5c4"/>
      <path id="Path_2" data-name="Path 2" d="M51.528,49.754a8.96,8.96,0,0,1-9.319,9.3,8.96,8.96,0,0,1-9.318-9.3c0-5.095,4.47-8.671,9.318-8.671S51.528,44.659,51.528,49.754Zm-14.079.022a4.767,4.767,0,1,0,9.519,0,4.771,4.771,0,0,0-9.519,0Z" transform="translate(-21.627 -41.083)" fill="#00a5c4"/>
      <path id="Path_3" data-name="Path 3" d="M50.45,41.558h4.379l8.023,10.3H62.9v-10.3h4.381V58.409H62.9L54.874,48.084h-.045V58.409H50.45Z" transform="translate(-18.517 -40.999)" fill="#00a5c4"/>
      <path id="Path_4" data-name="Path 4" d="M67.173,41.558h6.214a8.426,8.426,0,1,1,0,16.851H67.173ZM71.554,54.7h.983c2.616,0,4.85-1.43,4.85-4.717a4.435,4.435,0,0,0-4.805-4.714H71.554Z" transform="translate(-15.555 -40.999)" fill="#00a5c4"/>
      <path id="Path_5" data-name="Path 5" d="M85.969,55.48l-1.163,2.929H80.159l6.48-16.851h4.783l6.347,16.851H93.1L92,55.48Zm3.062-8.714h-.045l-1.809,5.363h3.641Z" transform="translate(-13.254 -40.999)" fill="#00a5c4"/>
      <path id="Path_6" data-name="Path 6" d="M102.039,58.409H97.66V45.267H94.04V41.558h11.621v3.709h-3.622Z" transform="translate(-10.796 -40.999)" fill="#00a5c4"/>
      <path id="Path_7" data-name="Path 7" d="M109.639,58.409h-4.381V41.558h4.381Z" transform="translate(-8.808 -40.999)" fill="#00a5c4"/>
      <path id="Path_8" data-name="Path 8" d="M129.326,49.754a9.319,9.319,0,0,1-18.638,0c0-5.095,4.47-8.671,9.319-8.671S129.326,44.659,129.326,49.754Zm-14.079.022a4.767,4.767,0,1,0,9.52,0,4.771,4.771,0,0,0-9.52,0Z" transform="translate(-7.847 -41.083)" fill="#00a5c4"/>
      <path id="Path_9" data-name="Path 9" d="M128.248,41.558h4.379l8.023,10.3h.045v-10.3h4.379V58.409h-4.379l-8.023-10.325h-.045V58.409h-4.379Z" transform="translate(-4.736 -40.999)" fill="#00a5c4"/>
      <path id="Path_10" data-name="Path 10" d="M156,55.48l-1.163,2.929h-4.647l6.479-16.851h4.785L167.8,58.409h-4.671l-1.095-2.929Zm3.059-8.714h-.044l-1.809,5.363h3.642Z" transform="translate(-0.849 -40.999)" fill="#00a5c4"/>
      <path id="Path_11" data-name="Path 11" d="M180.321,58.409h-5.454l-4.134-6.481h-.044v6.481h-4.38V41.558h6.548c3.329,0,5.854,1.587,5.854,5.184a4.531,4.531,0,0,1-3.688,4.76Zm-9.631-9.3h.424c1.431,0,3.039-.268,3.039-2.1s-1.608-2.1-3.039-2.1h-.424Z" transform="translate(2.006 -40.999)" fill="#00a5c4"/>
      <path id="Path_12" data-name="Path 12" d="M191.391,47.279a4.749,4.749,0,0,0-3.844-1.854,4.438,4.438,0,0,0-4.49,4.67,4.37,4.37,0,0,0,4.557,4.581,5.035,5.035,0,0,0,3.777-1.788V58.14a12.43,12.43,0,0,1-3.865.782,9.374,9.374,0,0,1-6.325-2.481,8.237,8.237,0,0,1-2.7-6.368,8.825,8.825,0,0,1,2.478-6.168,9.139,9.139,0,0,1,6.415-2.726,10.264,10.264,0,0,1,4,.85Z" transform="translate(4.165 -41.066)" fill="#00a5c4"/>
    </g>
    <g id="Group_2" data-name="Group 2" transform="translate(6.667 26.104)">
      <path id="Path_13" data-name="Path 13" d="M30.174,74.346H28.986V63.691H30.74a4.492,4.492,0,0,1,2.641.565,2.938,2.938,0,0,1,1.2,2.431,2.992,2.992,0,0,1-1.017,2.29,3.842,3.842,0,0,1-2.53.706h-.862Zm0-5.767h.791c1.315,0,2.431-.4,2.431-1.921,0-1.737-1.4-1.866-2.785-1.866h-.437Z" transform="translate(-28.986 -63.182)" fill="#00a5c4"/>
      <path id="Path_14" data-name="Path 14" d="M45.677,69.06a5.554,5.554,0,1,1-5.554-5.525A5.524,5.524,0,0,1,45.677,69.06Zm-9.921-.014a4.367,4.367,0,1,0,4.367-4.408A4.406,4.406,0,0,0,35.757,69.046Z" transform="translate(-27.997 -63.21)" fill="#00a5c4"/>
      <path id="Path_15" data-name="Path 15" d="M46.539,70.037a3.938,3.938,0,0,0,.467,2.372,2.745,2.745,0,0,0,2.147,1.018,2.812,2.812,0,0,0,2.092-.946,3.661,3.661,0,0,0,.524-2.444V63.691h1.187v6.67a3.744,3.744,0,0,1-.932,2.953,3.92,3.92,0,0,1-2.87,1.214A4,4,0,0,1,46.4,73.441a3.757,3.757,0,0,1-1.045-3.081v-6.67h1.187Z" transform="translate(-26.087 -63.182)" fill="#00a5c4"/>
      <path id="Path_16" data-name="Path 16" d="M54.788,74.346H53.6V63.691h1.54c2.021,0,3.9.538,3.9,2.941a2.783,2.783,0,0,1-2.671,2.938l3.391,4.777H58.307l-3.223-4.678h-.3Zm0-5.724h.368c1.341,0,2.7-.254,2.7-1.907,0-1.753-1.285-1.922-2.713-1.922h-.353Z" transform="translate(-24.626 -63.182)" fill="#00a5c4"/>
      <path id="Path_17" data-name="Path 17" d="M64.994,73.243h2.94v1.1H63.807V63.691h1.187Z" transform="translate(-22.818 -63.182)" fill="#00a5c4"/>
      <path id="Path_18" data-name="Path 18" d="M70.055,71.4l-1.287,3.025h-1.3l4.916-11.164,4.791,11.164H75.864L74.6,71.4Zm2.3-5.369L70.535,70.3h3.6Z" transform="translate(-22.169 -63.259)" fill="#00a5c4"/>
    </g>
    <g id="Group_3" data-name="Group 3" transform="translate(66.283 20.017)">
      <path id="Path_19" data-name="Path 19" d="M93.644,75.317H88.191l-4.135-6.48h-.044v6.48H79.631V58.467h6.55c3.329,0,5.854,1.587,5.854,5.184a4.53,4.53,0,0,1-3.687,4.762Zm-9.631-9.3h.424c1.43,0,3.039-.268,3.039-2.1s-1.609-2.1-3.039-2.1h-.424Z" transform="translate(-79.631 -58.021)" fill="#00a5c4"/>
      <path id="Path_20" data-name="Path 20" d="M96.92,62.178v2.815h4.939V68.7H96.92v2.906h5.208v3.708H92.541V58.467h9.587v3.711Z" transform="translate(-77.344 -58.021)" fill="#00a5c4"/>
      <path id="Path_21" data-name="Path 21" d="M115.154,64.189a4.754,4.754,0,0,0-3.843-1.855A4.439,4.439,0,0,0,106.819,67a4.371,4.371,0,0,0,4.558,4.581,5.037,5.037,0,0,0,3.777-1.789v5.252a12.431,12.431,0,0,1-3.866.782,9.382,9.382,0,0,1-6.325-2.48,8.241,8.241,0,0,1-2.7-6.368,8.82,8.82,0,0,1,2.481-6.169,9.126,9.126,0,0,1,6.413-2.725,10.269,10.269,0,0,1,4,.85Z" transform="translate(-75.623 -58.088)" fill="#00a5c4"/>
      <path id="Path_22" data-name="Path 22" d="M126.215,64.971v-6.5h4.38V75.317h-4.38v-6.9H119.89v6.9h-4.38V58.467h4.38v6.5Z" transform="translate(-73.276 -58.021)" fill="#00a5c4"/>
      <path id="Path_23" data-name="Path 23" d="M135.134,62.178v2.815h4.939V68.7h-4.939v2.906h5.206v3.708h-9.587V58.467h9.587v3.711Z" transform="translate(-70.575 -58.021)" fill="#00a5c4"/>
      <path id="Path_24" data-name="Path 24" d="M155.206,75.317h-5.451l-4.136-6.48h-.044v6.48H141.2V58.467h6.548c3.329,0,5.855,1.587,5.855,5.184a4.53,4.53,0,0,1-3.687,4.762Zm-9.631-9.3H146c1.43,0,3.039-.268,3.039-2.1s-1.609-2.1-3.039-2.1h-.425Z" transform="translate(-68.726 -58.021)" fill="#00a5c4"/>
      <path id="Path_25" data-name="Path 25" d="M166.276,64.189a4.754,4.754,0,0,0-3.844-1.855A4.438,4.438,0,0,0,157.942,67a4.371,4.371,0,0,0,4.559,4.581,5.031,5.031,0,0,0,3.775-1.789v5.252a12.41,12.41,0,0,1-3.865.782,9.378,9.378,0,0,1-6.325-2.48,8.232,8.232,0,0,1-2.7-6.368,8.824,8.824,0,0,1,2.48-6.169,9.127,9.127,0,0,1,6.414-2.725,10.259,10.259,0,0,1,4,.85Z" transform="translate(-66.567 -58.088)" fill="#00a5c4"/>
      <path id="Path_26" data-name="Path 26" d="M177.338,64.971v-6.5h4.379V75.317h-4.379v-6.9h-6.326v6.9h-4.379V58.467h4.379v6.5Z" transform="translate(-64.22 -58.021)" fill="#00a5c4"/>
      <path id="Path_27" data-name="Path 27" d="M186.257,62.178v2.815H191.2V68.7h-4.938v2.906h5.206v3.708h-9.587V58.467h9.587v3.711Z" transform="translate(-61.52 -58.021)" fill="#00a5c4"/>
    </g>
    <g id="Group_4" data-name="Group 4" transform="translate(56.558 46.112)">
      <path id="Path_28" data-name="Path 28" d="M76.711,82.517a1.957,1.957,0,0,0-1.837-1.158,1.692,1.692,0,0,0-1.767,1.654c0,.917.948,1.342,1.668,1.667l.706.311c1.386.609,2.559,1.3,2.559,2.995a3.363,3.363,0,0,1-6.671.538l1.158-.326a2.2,2.2,0,0,0,2.135,1.981A2.143,2.143,0,0,0,76.852,88.1c0-1.244-.975-1.668-1.965-2.119l-.65-.284c-1.244-.565-2.318-1.2-2.318-2.729A2.8,2.8,0,0,1,74.9,80.256a3.054,3.054,0,0,1,2.753,1.653Z" transform="translate(-71.369 -80.256)" fill="#00a5c4"/>
      <path id="Path_29" data-name="Path 29" d="M79.677,86.758a3.933,3.933,0,0,0,.466,2.373A2.746,2.746,0,0,0,82.29,90.15a2.824,2.824,0,0,0,2.093-.948,3.677,3.677,0,0,0,.521-2.445V80.413h1.188v6.67a3.741,3.741,0,0,1-.932,2.952,3.921,3.921,0,0,1-2.87,1.216,3.987,3.987,0,0,1-2.756-1.089,3.751,3.751,0,0,1-1.045-3.079v-6.67h1.188Z" transform="translate(-70.108 -80.228)" fill="#00a5c4"/>
      <path id="Path_30" data-name="Path 30" d="M87.925,91.068H86.738V80.413h1.54c2.021,0,3.9.537,3.9,2.938a2.784,2.784,0,0,1-2.672,2.939L92.9,91.068H91.444l-3.223-4.679h-.3Zm0-5.723h.367c1.343,0,2.7-.257,2.7-1.909,0-1.753-1.287-1.921-2.713-1.921h-.353Z" transform="translate(-68.647 -80.228)" fill="#00a5c4"/>
      <path id="Path_31" data-name="Path 31" d="M98.132,89.964h2.938v1.1H96.944V80.413h1.188Z" transform="translate(-66.839 -80.228)" fill="#00a5c4"/>
      <path id="Path_32" data-name="Path 32" d="M101.447,80.413h5.524v1.1h-4.338V84.68h4.212v1.1h-4.212v4.181h4.338v1.1h-5.524Z" transform="translate(-66.041 -80.228)" fill="#00a5c4"/>
    </g>
    <g id="Group_5" data-name="Group 5" transform="translate(102.143 39.614)">
      <path id="Path_33" data-name="Path 33" d="M122.991,80.837a4.756,4.756,0,0,0-3.843-1.855,4.44,4.44,0,0,0-4.493,4.67,4.371,4.371,0,0,0,4.559,4.581,5.045,5.045,0,0,0,3.777-1.787V91.7a12.464,12.464,0,0,1-3.867.782A9.382,9.382,0,0,1,112.8,90a8.242,8.242,0,0,1-2.705-6.369,8.818,8.818,0,0,1,2.481-6.168,9.125,9.125,0,0,1,6.414-2.726,10.273,10.273,0,0,1,4,.85Z" transform="translate(-110.095 -74.736)" fill="#00a5c4"/>
      <path id="Path_34" data-name="Path 34" d="M127.866,89.038,126.7,91.967h-4.647l6.48-16.851h4.782l6.347,16.851h-4.671L133.9,89.038Zm3.061-8.715h-.045l-1.809,5.364h3.642Z" transform="translate(-107.976 -74.669)" fill="#00a5c4"/>
      <path id="Path_35" data-name="Path 35" d="M138.172,75.116h4.38l8.023,10.3h.044v-10.3H155V91.967h-4.38L142.6,81.641h-.045V91.967h-4.38Z" transform="translate(-105.122 -74.669)" fill="#00a5c4"/>
      <path id="Path_36" data-name="Path 36" d="M167.069,80.837a4.749,4.749,0,0,0-3.842-1.855,4.439,4.439,0,0,0-4.492,4.67,4.37,4.37,0,0,0,4.559,4.581,5.036,5.036,0,0,0,3.775-1.787V91.7a12.443,12.443,0,0,1-3.865.782A9.378,9.378,0,0,1,156.88,90a8.237,8.237,0,0,1-2.7-6.369,8.817,8.817,0,0,1,2.48-6.168,9.122,9.122,0,0,1,6.412-2.726,10.26,10.26,0,0,1,4,.85Z" transform="translate(-102.287 -74.736)" fill="#00a5c4"/>
      <path id="Path_37" data-name="Path 37" d="M171.8,78.826v2.815h4.942V85.35H171.8v2.906h5.208v3.71h-9.587V75.116h9.587v3.71Z" transform="translate(-99.94 -74.669)" fill="#00a5c4"/>
      <path id="Path_38" data-name="Path 38" d="M191.877,91.967h-5.45l-4.136-6.481h-.044v6.481h-4.38V75.116h6.548c3.329,0,5.855,1.586,5.855,5.184a4.532,4.532,0,0,1-3.688,4.762Zm-9.63-9.3h.425c1.43,0,3.039-.268,3.039-2.1s-1.609-2.1-3.039-2.1h-.425Z" transform="translate(-98.09 -74.669)" fill="#00a5c4"/>
    </g>
  </g>
  <g id="Group_7" data-name="Group 7" transform="translate(93.194 70.654)">
    <path id="Path_39" data-name="Path 39" d="M94.244,103.675H93.5V97h.965c1.267,0,2.444.337,2.444,1.842a1.744,1.744,0,0,1-1.674,1.841l2.126,2.993H96.45l-2.019-2.931h-.187Zm0-3.587h.232c.84,0,1.69-.159,1.69-1.2,0-1.1-.805-1.2-1.7-1.2h-.222Z" transform="translate(-93.501 -96.369)" fill="#00a5c4"/>
    <path id="Path_40" data-name="Path 40" d="M98.363,101.383a1.348,1.348,0,0,0,1.364,1.39,1.425,1.425,0,0,0,1.265-.859l.6.345a2.1,2.1,0,0,1-1.92,1.17,2.015,2.015,0,0,1-2.038-2.144,2.017,2.017,0,1,1,3.994.1Zm2.524-.6a1.271,1.271,0,0,0-1.222-1.09,1.315,1.315,0,0,0-1.267,1.09Z" transform="translate(-92.768 -96.008)" fill="#00a5c4"/>
    <path id="Path_41" data-name="Path 41" d="M105.386,100.392h-.019a1.6,1.6,0,0,0-1.291-.7,1.488,1.488,0,0,0-1.47,1.541,1.458,1.458,0,0,0,1.434,1.541,1.622,1.622,0,0,0,1.356-.717h.016V103a2.265,2.265,0,0,1-1.32.426,2.156,2.156,0,0,1-2.214-2.2,2.2,2.2,0,0,1,2.224-2.2,2.243,2.243,0,0,1,1.284.417Z" transform="translate(-92.017 -96.008)" fill="#00a5c4"/>
    <path id="Path_42" data-name="Path 42" d="M105.873,101.241a2.187,2.187,0,1,1,2.187,2.188A2.184,2.184,0,0,1,105.873,101.241Zm.707-.008a1.48,1.48,0,1,0,1.48-1.541A1.475,1.475,0,0,0,106.58,101.233Z" transform="translate(-91.31 -96.008)" fill="#00a5c4"/>
    <path id="Path_43" data-name="Path 43" d="M111.5,99.658h.018a1.4,1.4,0,0,1,1.185-.622c1.152,0,1.418.832,1.418,1.807v2.471h-.709v-2.346c0-.674-.054-1.276-.877-1.276-.974,0-1.036.9-1.036,1.647v1.975h-.71V99.153h.71Z" transform="translate(-90.439 -96.008)" fill="#00a5c4"/>
    <path id="Path_44" data-name="Path 44" d="M115.847,99.658h.016a1.4,1.4,0,0,1,1.187-.622c1.152,0,1.417.832,1.417,1.807v2.471h-.707v-2.346c0-.674-.054-1.276-.877-1.276-.975,0-1.036.9-1.036,1.647v1.975h-.71V99.153h.71Z" transform="translate(-89.669 -96.008)" fill="#00a5c4"/>
    <path id="Path_45" data-name="Path 45" d="M120.147,101.454c0,.7.081,1.3.939,1.3s.939-.6.939-1.3V99.135h.709v2.4c0,1.107-.417,1.878-1.648,1.878s-1.647-.771-1.647-1.878v-2.4h.707Z" transform="translate(-88.906 -95.991)" fill="#00a5c4"/>
    <path id="Path_46" data-name="Path 46" d="M124.122,101.383a1.347,1.347,0,0,0,1.363,1.39,1.425,1.425,0,0,0,1.267-.859l.6.345a2.1,2.1,0,0,1-1.921,1.17,2.015,2.015,0,0,1-2.036-2.144,2.017,2.017,0,1,1,3.994.1Zm2.524-.6a1.271,1.271,0,0,0-1.222-1.09,1.318,1.318,0,0,0-1.268,1.09Z" transform="translate(-88.206 -96.008)" fill="#00a5c4"/>
    <path id="Path_47" data-name="Path 47" d="M133.827,103.194h-.019a1.77,1.77,0,0,1-1.433.691,2.206,2.206,0,0,1,.007-4.393,1.794,1.794,0,0,1,1.425.71h.019V96.464h.709v7.305h-.709Zm-2.719-1.55a1.438,1.438,0,0,0,1.364,1.586,1.419,1.419,0,0,0,1.39-1.576,1.392,1.392,0,0,0-1.4-1.506A1.411,1.411,0,0,0,131.108,101.643Z" transform="translate(-86.968 -96.464)" fill="#00a5c4"/>
    <path id="Path_48" data-name="Path 48" d="M136.766,97.139,135.757,99.4l-.478-.187.832-2.311Z" transform="translate(-86.101 -96.387)" fill="#00a5c4"/>
    <path id="Path_49" data-name="Path 49" d="M138.61,101.454c0,.7.081,1.3.939,1.3s.939-.6.939-1.3V99.135h.709v2.4c0,1.107-.417,1.878-1.648,1.878s-1.647-.771-1.647-1.878v-2.4h.707Z" transform="translate(-85.636 -95.991)" fill="#00a5c4"/>
    <path id="Path_50" data-name="Path 50" d="M142.978,103.521h-.707v-3.507h-.434V99.36h.434v-1.5h.707v1.5h.745v.655h-.745Z" transform="translate(-84.939 -96.216)" fill="#00a5c4"/>
    <path id="Path_51" data-name="Path 51" d="M145.351,97.879a.5.5,0,0,1-1.009,0,.5.5,0,1,1,1.009,0Zm-.152,5.729h-.707V99.447h.707Z" transform="translate(-84.495 -96.303)" fill="#00a5c4"/>
    <path id="Path_52" data-name="Path 52" d="M147.4,103.769h-.709V96.464h.709Z" transform="translate(-84.08 -96.464)" fill="#00a5c4"/>
    <path id="Path_53" data-name="Path 53" d="M149.781,97.879a.5.5,0,0,1-1.01,0,.5.5,0,1,1,1.01,0Zm-.152,5.729h-.709V99.447h.709Z" transform="translate(-83.711 -96.303)" fill="#00a5c4"/>
    <path id="Path_54" data-name="Path 54" d="M151.936,103.521h-.709v-3.507h-.434V99.36h.434v-1.5h.709v1.5h.744v.655h-.744Z" transform="translate(-83.353 -96.216)" fill="#00a5c4"/>
    <path id="Path_55" data-name="Path 55" d="M153.724,101.731a1.346,1.346,0,0,0,1.363,1.39,1.423,1.423,0,0,0,1.266-.859l.6.345a2.1,2.1,0,0,1-1.92,1.17A2.014,2.014,0,0,1,153,101.633a2.017,2.017,0,1,1,3.994.1Zm2.523-.6a1.27,1.27,0,0,0-1.221-1.09,1.317,1.317,0,0,0-1.268,1.09Zm-.345-3.72-1.355,1.364-.444-.248,1.054-1.453Z" transform="translate(-82.962 -96.356)" fill="#00a5c4"/>
    <path id="Path_56" data-name="Path 56" d="M160.963,99.746h.016a1.757,1.757,0,0,1,1.435-.71,2.069,2.069,0,0,1,1.993,2.2,2.024,2.024,0,0,1-2,2.188,1.759,1.759,0,0,1-1.426-.7h-.016v2.922h-.707v-6.5h.707Zm-.036,1.442a1.437,1.437,0,0,0,1.363,1.586,1.419,1.419,0,0,0,1.391-1.576,1.391,1.391,0,0,0-1.4-1.506A1.41,1.41,0,0,0,160.927,101.188Z" transform="translate(-81.676 -96.008)" fill="#00a5c4"/>
    <path id="Path_57" data-name="Path 57" d="M165.664,101.454c0,.7.08,1.3.937,1.3s.94-.6.94-1.3V99.135h.709v2.4c0,1.107-.417,1.878-1.649,1.878s-1.646-.771-1.646-1.878v-2.4h.709Z" transform="translate(-80.844 -95.991)" fill="#00a5c4"/>
    <path id="Path_58" data-name="Path 58" d="M169.2,96.464h.709V100.2h.015a1.791,1.791,0,0,1,1.425-.71,2.206,2.206,0,0,1,.009,4.393,1.755,1.755,0,0,1-1.435-.691h-.015v.576H169.2Zm.672,5.179a1.437,1.437,0,0,0,1.363,1.586,1.419,1.419,0,0,0,1.39-1.576,1.391,1.391,0,0,0-1.4-1.506A1.41,1.41,0,0,0,169.869,101.643Z" transform="translate(-80.093 -96.464)" fill="#00a5c4"/>
    <path id="Path_59" data-name="Path 59" d="M174.635,103.769h-.707V96.464h.707Z" transform="translate(-79.255 -96.464)" fill="#00a5c4"/>
    <path id="Path_60" data-name="Path 60" d="M177.019,97.879a.5.5,0,0,1-1.009,0,.5.5,0,1,1,1.009,0Zm-.15,5.729h-.707V99.447h.707Z" transform="translate(-78.886 -96.303)" fill="#00a5c4"/>
    <path id="Path_61" data-name="Path 61" d="M182.225,105.651h-.709V102.73H181.5a1.764,1.764,0,0,1-1.426.7,2.023,2.023,0,0,1-2-2.179,2.068,2.068,0,0,1,1.994-2.214,1.762,1.762,0,0,1,1.434.71h.019v-.593h.709Zm-3.429-4.464a1.438,1.438,0,0,0,1.364,1.586,1.419,1.419,0,0,0,1.39-1.576,1.391,1.391,0,0,0-1.4-1.506A1.411,1.411,0,0,0,178.8,101.188Z" transform="translate(-78.521 -96.008)" fill="#00a5c4"/>
    <path id="Path_62" data-name="Path 62" d="M183.75,101.454c0,.7.081,1.3.938,1.3s.941-.6.941-1.3V99.135h.709v2.4c0,1.107-.417,1.878-1.649,1.878s-1.646-.771-1.646-1.878v-2.4h.707Z" transform="translate(-77.64 -95.991)" fill="#00a5c4"/>
    <path id="Path_63" data-name="Path 63" d="M187.724,101.383a1.349,1.349,0,0,0,1.363,1.39,1.427,1.427,0,0,0,1.268-.859l.6.345a2.1,2.1,0,0,1-1.922,1.17,2.209,2.209,0,1,1,1.958-2.046Zm2.525-.6a1.272,1.272,0,0,0-1.223-1.09,1.319,1.319,0,0,0-1.268,1.09Z" transform="translate(-76.94 -96.008)" fill="#00a5c4"/>
  </g>
  <g id="Group_8" data-name="Group 8">
    <path id="Path_65" data-name="Path 65" d="M226.282,54.99c-2.6,2.686-5.116,5.505-7.444,8.365,1.874-.12,3.722-.381,5.524-.57.952-2.8,2.977-8.314,2.977-8.314C227.5,53.941,226.926,54.289,226.282,54.99Z" transform="translate(21.894 -33.294)" fill="#00a5c4"/>
    <path id="Path_66" data-name="Path 66" d="M256.822,63.684l-3.409-.21c-8.022-.47-17.563-.173-24.568.065-.639.131.1.819.461,1.182,5.516,5.334,11.114,10.4,16.615,15.43a6.263,6.263,0,0,0,2.016,1.511c1.322.7,2.255-.782,3.111-1.5a21.547,21.547,0,0,0,3.8-4.118l.074-.135a4.275,4.275,0,0,0,.456-.8,19.447,19.447,0,0,0,1.583-3.947c.039-.211.147-.582.147-.667a22.294,22.294,0,0,0,.044-4.48C257.077,65.271,256.932,64.461,256.822,63.684Z" transform="translate(23.622 -31.698)" fill="#00a5c4"/>
    <path id="Path_64" data-name="Path 64" d="M14.331,36.442V104.8H314.7V36.442ZM227.48,102.877H16.251V38.362H227.48Zm77.032-33.722A14.524,14.524,0,0,1,300.1,69a10.621,10.621,0,0,0-2.258-.312c-.146,1.907.287,3.8,0,5.716a24.786,24.786,0,0,1-.518,2.825l-.124.318c-1.054,3.322-4.6,7.118-7.762,10.421-.55,1.123-1.042,2.5-2.113,3.168-.767.4-1.529-.232-2.156.028-.938.436-1.715,2.584-2.731,4.407a4.244,4.244,0,0,1-.832,1.288,1.762,1.762,0,0,1-.831.2c-.726,0-1.315-.394-1.315-.881a.173.173,0,0,1,.007-.025h0a5.494,5.494,0,0,1,.279-1.068c.862-2.286,2.905-4.288,4.656-5.817-2.378-2.408-4.9-4.644-7.346-6.964l-.018-.008c-2.607-2.621-5.75-5.319-8.532-8.047-1.918-1.679-3.764-3.6-5.617-5.35a.276.276,0,0,0-.381,0c-.126-.02-1.587,5.282-2.306,7.949a58.02,58.02,0,0,0-1.071,6.241,3.563,3.563,0,0,1-2.147,2.591,1.5,1.5,0,0,1-1.088-.128,1.239,1.239,0,0,1-.352-.805c-.149-1.218.8-3.442,1.105-4.938.743-2.717,1.394-5.471,2.21-8.16.3-1.141.446-1.522.646-2.3l-.071-.139a71.965,71.965,0,0,0-7.346.418c-2.285,2.734-4.2,5.642-6.528,8.365a50.439,50.439,0,0,1-6.2,7.013,2.348,2.348,0,0,1-2.157.674.988.988,0,0,1-.7-.584c-.3-1.424,1.056-2.43,1.951-3.417a114.664,114.664,0,0,0,10.66-11.844,2.986,2.986,0,0,0-1.2.1c-.612.1-1.575.444-2.019-.054a1.328,1.328,0,0,1-.193-1.3c.639-1.017,2.184-1.092,3.358-1.4l2.26-.308c4.348-4.538,8.109-9.809,13.3-13.176a2.359,2.359,0,0,1,2.639-.077,1.038,1.038,0,0,1,.338,1.091,8.539,8.539,0,0,1-.647,1.858c-.272.5-.428.915-.716,1.576-.49,1.3-1.021,2.627-1.515,3.945a33.564,33.564,0,0,0-1.2,3.481.362.362,0,0,0,.382.054A120.245,120.245,0,0,1,279.5,56.06a5.023,5.023,0,0,0,1.2-1.091.871.871,0,0,0,.142-.83c-.336-.626-.991-.669-1.489-.99-6.151-1.741-19.14-1.494-19.876-1.507a1.2,1.2,0,0,1-.8-.513.847.847,0,0,1,.174-1.025c1.861-1.391,4.267-1.443,6.481-1.424,6-.119,13.905,1.353,16.858,2.7,1.112.529,2.651,1.03,2.736,2.806v.31c-.391,2.186-2.969,2.711-4.467,3.847-3.565,1.922-7.137,3.816-10.661,5.872a8.238,8.238,0,0,0-1.92,1.245l2.636-.038c1.037-.048,15.819-.248,23.584-.062l.048-.054a16.583,16.583,0,0,0-.508-2.747c-.333-1.054-.333-1.083-.333-1.083l-.359-.952a6.958,6.958,0,0,0-.676-1.35,26.738,26.738,0,0,0-5.134-6.546c-1.853-1.577-5.265-4.583-5.4-4.907,0,0-.55-.63-.29-1.129.128-.247.215-.592,1.2-.995,0,0,1.913-.752,2.157-.029a18.252,18.252,0,0,0,4.658,5.677,18.1,18.1,0,0,1,4.626,5.4c.3.546.683,1.162,1,1.753.013.051.1.168.2.379a28.556,28.556,0,0,1,1.648,5.179l.29,1.559c2.217.094,5.481-.092,7.383.185l0,0Z" transform="translate(-14.331 -36.442)" fill="#00a5c4"/>
  </g>
</svg>
