<svg xmlns="http://www.w3.org/2000/svg" width="265.483" height="70.97" viewBox="0 0 265.483 70.97">
  <g id="Logo_ARC" data-name="Logo ARC" transform="translate(-14.331 -36.442)">
    <g id="Group_6" data-name="Group 6" transform="translate(23.685 41.271)">
      <g id="Group_1" data-name="Group 1">
        <path id="Path_1" data-name="Path 1" d="M27.193,44.836v2.49h4.246V50.6H27.193v5.848H23.322V41.558h8.552v3.278Z" transform="translate(-23.322 -41.064)" fill="#fff"/>
        <path id="Path_2" data-name="Path 2" d="M49.363,48.747a7.919,7.919,0,0,1-8.237,8.217,7.919,7.919,0,0,1-8.236-8.217c0-4.5,3.95-7.664,8.236-7.664S49.363,44.244,49.363,48.747Zm-12.443.02a4.213,4.213,0,1,0,8.414,0,4.217,4.217,0,0,0-8.414,0Z" transform="translate(-22.935 -41.083)" fill="#fff"/>
        <path id="Path_3" data-name="Path 3" d="M50.45,41.558h3.87l7.091,9.106h.038V41.558h3.872V56.451H61.45l-7.09-9.125h-.04v9.125H50.45Z" transform="translate(-22.226 -41.064)" fill="#fff"/>
        <path id="Path_4" data-name="Path 4" d="M67.173,41.558h5.492a7.448,7.448,0,1,1,0,14.893H67.173Zm3.872,11.614h.869c2.312,0,4.286-1.264,4.286-4.169a3.919,3.919,0,0,0-4.247-4.167h-.908Z" transform="translate(-21.55 -41.064)" fill="#fff"/>
        <path id="Path_5" data-name="Path 5" d="M85.294,53.863l-1.028,2.589H80.159l5.727-14.893h4.227l5.61,14.893H91.6l-.969-2.589ZM88,46.161h-.04l-1.6,4.74H89.58Z" transform="translate(-21.026 -41.064)" fill="#fff"/>
        <path id="Path_6" data-name="Path 6" d="M101.11,56.451h-3.87V44.836h-3.2V41.558h10.271v3.278h-3.2Z" transform="translate(-20.465 -41.064)" fill="#fff"/>
        <path id="Path_7" data-name="Path 7" d="M109.13,56.451h-3.872V41.558h3.872Z" transform="translate(-20.012 -41.064)" fill="#fff"/>
        <path id="Path_8" data-name="Path 8" d="M127.161,48.747a8.236,8.236,0,0,1-16.473,0c0-4.5,3.95-7.664,8.237-7.664S127.161,44.244,127.161,48.747Zm-12.443.02a4.213,4.213,0,1,0,8.414,0,4.217,4.217,0,0,0-8.414,0Z" transform="translate(-19.792 -41.083)" fill="#fff"/>
        <path id="Path_9" data-name="Path 9" d="M128.248,41.558h3.87l7.091,9.106h.04V41.558h3.87V56.451h-3.87l-7.091-9.125h-.04v9.125h-3.87Z" transform="translate(-19.083 -41.064)" fill="#fff"/>
        <path id="Path_10" data-name="Path 10" d="M155.328,53.863,154.3,56.451h-4.108l5.726-14.893h4.229l5.608,14.893h-4.128l-.968-2.589Zm2.7-7.7h-.039l-1.6,4.74h3.219Z" transform="translate(-18.196 -41.064)" fill="#fff"/>
        <path id="Path_11" data-name="Path 11" d="M178.694,56.451h-4.82l-3.654-5.728h-.039v5.728H166.31V41.558H172.1c2.942,0,5.174,1.4,5.174,4.582a4,4,0,0,1-3.26,4.207Zm-8.513-8.217h.375c1.265,0,2.686-.237,2.686-1.857s-1.421-1.857-2.686-1.857h-.375Z" transform="translate(-17.545 -41.064)" fill="#fff"/>
        <path id="Path_12" data-name="Path 12" d="M189.894,46.57a4.2,4.2,0,0,0-3.4-1.639,3.922,3.922,0,0,0-3.968,4.127,3.862,3.862,0,0,0,4.027,4.049,4.45,4.45,0,0,0,3.339-1.58V56.17a10.985,10.985,0,0,1-3.416.691,8.285,8.285,0,0,1-5.59-2.193,7.28,7.28,0,0,1-2.39-5.629,7.8,7.8,0,0,1,2.19-5.452,8.077,8.077,0,0,1,5.67-2.41,9.072,9.072,0,0,1,3.535.751Z" transform="translate(-17.053 -41.079)" fill="#fff"/>
      </g>
      <g id="Group_2" data-name="Group 2" transform="translate(5.893 23.072)">
        <path id="Path_13" data-name="Path 13" d="M30.036,73.109h-1.05V63.691h1.55a3.971,3.971,0,0,1,2.335.5,2.6,2.6,0,0,1,1.061,2.148,2.644,2.644,0,0,1-.9,2.024,3.4,3.4,0,0,1-2.236.624h-.762Zm0-5.1h.7c1.162,0,2.148-.35,2.148-1.7,0-1.536-1.236-1.649-2.462-1.649h-.386Z" transform="translate(-28.986 -63.242)" fill="#fff"/>
        <path id="Path_14" data-name="Path 14" d="M44.387,68.419a4.909,4.909,0,1,1-4.909-4.884A4.883,4.883,0,0,1,44.387,68.419Zm-8.768-.012a3.86,3.86,0,1,0,3.86-3.9A3.894,3.894,0,0,0,35.619,68.406Z" transform="translate(-28.76 -63.248)" fill="#fff"/>
        <path id="Path_15" data-name="Path 15" d="M46.4,69.3a3.481,3.481,0,0,0,.413,2.1,2.426,2.426,0,0,0,1.9.9,2.486,2.486,0,0,0,1.849-.836,3.236,3.236,0,0,0,.463-2.16V63.691h1.049v5.895a3.309,3.309,0,0,1-.824,2.61,3.465,3.465,0,0,1-2.536,1.073,3.531,3.531,0,0,1-2.436-.96,3.32,3.32,0,0,1-.924-2.723V63.691H46.4Z" transform="translate(-28.325 -63.242)" fill="#fff"/>
        <path id="Path_16" data-name="Path 16" d="M54.65,73.109H53.6V63.691h1.361c1.786,0,3.448.475,3.448,2.6a2.46,2.46,0,0,1-2.361,2.6l3,4.222H57.761l-2.849-4.135H54.65Zm0-5.059h.326c1.185,0,2.385-.225,2.385-1.685,0-1.549-1.136-1.7-2.4-1.7H54.65Z" transform="translate(-27.992 -63.242)" fill="#fff"/>
        <path id="Path_17" data-name="Path 17" d="M64.856,72.134h2.6v.975H63.807V63.691h1.049Z" transform="translate(-27.579 -63.242)" fill="#fff"/>
        <path id="Path_18" data-name="Path 18" d="M69.755,70.452l-1.137,2.674H67.47l4.345-9.867,4.234,9.867h-1.16l-1.113-2.674Zm2.036-4.745-1.612,3.771h3.186Z" transform="translate(-27.431 -63.259)" fill="#fff"/>
      </g>
      <g id="Group_3" data-name="Group 3" transform="translate(58.584 17.692)">
        <path id="Path_19" data-name="Path 19" d="M92.016,73.359H87.2l-3.655-5.727H83.5v5.727H79.631V58.467H85.42c2.942,0,5.174,1.4,5.174,4.582a4,4,0,0,1-3.259,4.208ZM83.5,65.143h.375c1.264,0,2.686-.237,2.686-1.856s-1.422-1.857-2.686-1.857H83.5Z" transform="translate(-79.631 -58.073)" fill="#fff"/>
        <path id="Path_20" data-name="Path 20" d="M96.411,61.747v2.488h4.366v3.278H96.411v2.569h4.6v3.277H92.541V58.467h8.473v3.28Z" transform="translate(-79.109 -58.073)" fill="#fff"/>
        <path id="Path_21" data-name="Path 21" d="M113.657,63.48a4.2,4.2,0,0,0-3.4-1.64,3.923,3.923,0,0,0-3.97,4.128,3.863,3.863,0,0,0,4.028,4.049,4.452,4.452,0,0,0,3.339-1.581v4.642a10.986,10.986,0,0,1-3.417.691,8.293,8.293,0,0,1-5.59-2.192,7.283,7.283,0,0,1-2.39-5.629,7.8,7.8,0,0,1,2.193-5.453,8.066,8.066,0,0,1,5.668-2.409,9.076,9.076,0,0,1,3.535.751Z" transform="translate(-78.717 -58.088)" fill="#fff"/>
        <path id="Path_22" data-name="Path 22" d="M124.971,64.215V58.467h3.871V73.359h-3.871v-6.1h-5.59v6.1H115.51V58.467h3.871v5.748Z" transform="translate(-78.181 -58.073)" fill="#fff"/>
        <path id="Path_23" data-name="Path 23" d="M134.625,61.747v2.488h4.366v3.278h-4.366v2.569h4.6v3.277h-8.473V58.467h8.473v3.28Z" transform="translate(-77.566 -58.073)" fill="#fff"/>
        <path id="Path_24" data-name="Path 24" d="M153.579,73.359h-4.818L145.1,67.632h-.038v5.727h-3.871V58.467h5.788c2.942,0,5.175,1.4,5.175,4.582a4,4,0,0,1-3.259,4.208Zm-8.513-8.216h.376c1.264,0,2.686-.237,2.686-1.856s-1.422-1.857-2.686-1.857h-.376Z" transform="translate(-77.144 -58.073)" fill="#fff"/>
        <path id="Path_25" data-name="Path 25" d="M164.779,63.48a4.2,4.2,0,0,0-3.4-1.64,3.923,3.923,0,0,0-3.968,4.128,3.863,3.863,0,0,0,4.029,4.049,4.446,4.446,0,0,0,3.337-1.581v4.642a10.969,10.969,0,0,1-3.416.691,8.289,8.289,0,0,1-5.59-2.192,7.276,7.276,0,0,1-2.39-5.629,7.8,7.8,0,0,1,2.192-5.453,8.067,8.067,0,0,1,5.669-2.409,9.067,9.067,0,0,1,3.534.751Z" transform="translate(-76.651 -58.088)" fill="#fff"/>
        <path id="Path_26" data-name="Path 26" d="M176.094,64.215V58.467h3.87V73.359h-3.87v-6.1H170.5v6.1h-3.87V58.467h3.87v5.748Z" transform="translate(-76.116 -58.073)" fill="#fff"/>
        <path id="Path_27" data-name="Path 27" d="M185.748,61.747v2.488h4.364v3.278h-4.364v2.569h4.6v3.277h-8.473V58.467h8.473v3.28Z" transform="translate(-75.5 -58.073)" fill="#fff"/>
      </g>
      <g id="Group_4" data-name="Group 4" transform="translate(49.988 40.756)">
        <path id="Path_28" data-name="Path 28" d="M76.09,82.255a1.729,1.729,0,0,0-1.624-1.024A1.5,1.5,0,0,0,72.9,82.693c0,.81.838,1.186,1.474,1.473L75,84.44c1.225.538,2.262,1.15,2.262,2.647a2.973,2.973,0,0,1-5.9.475l1.024-.288a1.942,1.942,0,0,0,1.887,1.751,1.894,1.894,0,0,0,1.935-1.837c0-1.1-.861-1.474-1.736-1.873l-.574-.251c-1.1-.5-2.049-1.062-2.049-2.412a2.473,2.473,0,0,1,2.636-2.4,2.7,2.7,0,0,1,2.433,1.461Z" transform="translate(-71.369 -80.256)" fill="#fff"/>
        <path id="Path_29" data-name="Path 29" d="M79.539,86.021a3.476,3.476,0,0,0,.412,2.1,2.427,2.427,0,0,0,1.9.9,2.5,2.5,0,0,0,1.85-.838,3.25,3.25,0,0,0,.461-2.161V80.413h1.05v5.895a3.307,3.307,0,0,1-.824,2.609,3.466,3.466,0,0,1-2.536,1.075,3.524,3.524,0,0,1-2.436-.962,3.315,3.315,0,0,1-.924-2.722V80.413h1.05Z" transform="translate(-71.081 -80.25)" fill="#fff"/>
        <path id="Path_30" data-name="Path 30" d="M87.787,89.831H86.738V80.413H88.1c1.786,0,3.448.474,3.448,2.6a2.461,2.461,0,0,1-2.362,2.6l3,4.223H90.9L88.049,85.7h-.262Zm0-5.058h.325c1.187,0,2.386-.227,2.386-1.688,0-1.549-1.137-1.7-2.4-1.7h-.312Z" transform="translate(-70.748 -80.25)" fill="#fff"/>
        <path id="Path_31" data-name="Path 31" d="M97.994,88.855h2.6v.976H96.944V80.413h1.05Z" transform="translate(-70.336 -80.25)" fill="#fff"/>
        <path id="Path_32" data-name="Path 32" d="M101.447,80.413h4.883v.974H102.5v2.8h3.723v.975H102.5v3.7h3.834v.976h-4.883Z" transform="translate(-70.154 -80.25)" fill="#fff"/>
      </g>
      <g id="Group_5" data-name="Group 5" transform="translate(90.279 35.013)">
        <path id="Path_33" data-name="Path 33" d="M121.493,80.128a4.2,4.2,0,0,0-3.4-1.64,3.924,3.924,0,0,0-3.971,4.127,3.863,3.863,0,0,0,4.029,4.049,4.459,4.459,0,0,0,3.339-1.579v4.642a11.016,11.016,0,0,1-3.418.691,8.292,8.292,0,0,1-5.589-2.192A7.284,7.284,0,0,1,110.1,82.6a7.794,7.794,0,0,1,2.193-5.452,8.065,8.065,0,0,1,5.669-2.41,9.08,9.08,0,0,1,3.535.751Z" transform="translate(-110.095 -74.736)" fill="#fff"/>
        <path id="Path_34" data-name="Path 34" d="M127.191,87.421l-1.028,2.589h-4.107l5.727-14.893h4.226l5.61,14.893h-4.128l-.967-2.589Zm2.705-7.7h-.04l-1.6,4.741h3.219Z" transform="translate(-109.612 -74.721)" fill="#fff"/>
        <path id="Path_35" data-name="Path 35" d="M138.172,75.116h3.871l7.091,9.1h.038v-9.1h3.871V90.009h-3.871l-7.09-9.126h-.04v9.126h-3.871Z" transform="translate(-108.961 -74.721)" fill="#fff"/>
        <path id="Path_36" data-name="Path 36" d="M165.571,80.128a4.2,4.2,0,0,0-3.4-1.64,3.923,3.923,0,0,0-3.97,4.127,3.862,3.862,0,0,0,4.029,4.049,4.451,4.451,0,0,0,3.337-1.579v4.642a11,11,0,0,1-3.416.691,8.289,8.289,0,0,1-5.59-2.192,7.28,7.28,0,0,1-2.39-5.63,7.793,7.793,0,0,1,2.192-5.452,8.062,8.062,0,0,1,5.667-2.41,9.069,9.069,0,0,1,3.536.751Z" transform="translate(-108.314 -74.736)" fill="#fff"/>
        <path id="Path_37" data-name="Path 37" d="M171.3,78.4v2.488h4.368v3.278H171.3V86.73h4.6v3.279h-8.473V75.116H175.9V78.4Z" transform="translate(-107.779 -74.721)" fill="#fff"/>
        <path id="Path_38" data-name="Path 38" d="M190.25,90.009h-4.817l-3.656-5.728h-.038v5.728h-3.871V75.116h5.788c2.942,0,5.175,1.4,5.175,4.582a4.006,4.006,0,0,1-3.26,4.208Zm-8.512-8.217h.376c1.264,0,2.686-.237,2.686-1.858s-1.422-1.855-2.686-1.855h-.376Z" transform="translate(-107.357 -74.721)" fill="#fff"/>
      </g>
    </g>
    <g id="Group_7" data-name="Group 7" transform="translate(96.699 98.889)">
      <path id="Path_39" data-name="Path 39" d="M94.157,102.9H93.5V97h.853c1.119,0,2.16.3,2.16,1.628a1.541,1.541,0,0,1-1.479,1.627l1.879,2.646h-.806l-1.784-2.591h-.165Zm0-3.17h.2c.743,0,1.494-.14,1.494-1.057,0-.97-.712-1.063-1.5-1.063h-.2Z" transform="translate(-93.501 -96.442)" fill="#fff"/>
      <path id="Path_40" data-name="Path 40" d="M98.279,101.111a1.191,1.191,0,0,0,1.206,1.229,1.259,1.259,0,0,0,1.118-.759l.532.3a1.855,1.855,0,0,1-1.7,1.034,1.781,1.781,0,0,1-1.8-1.895,1.783,1.783,0,1,1,3.53.086Zm2.231-.532a1.123,1.123,0,0,0-1.08-.963,1.163,1.163,0,0,0-1.119.963Z" transform="translate(-93.334 -96.36)" fill="#fff"/>
      <path id="Path_41" data-name="Path 41" d="M104.978,100.235h-.017a1.415,1.415,0,0,0-1.141-.619,1.315,1.315,0,0,0-1.3,1.362,1.289,1.289,0,0,0,1.267,1.362,1.433,1.433,0,0,0,1.2-.634H105v.836a2,2,0,0,1-1.166.377,1.906,1.906,0,0,1-1.957-1.941,1.942,1.942,0,0,1,1.965-1.941,1.982,1.982,0,0,1,1.135.368Z" transform="translate(-93.163 -96.36)" fill="#fff"/>
      <path id="Path_42" data-name="Path 42" d="M105.873,100.985a1.933,1.933,0,1,1,1.933,1.934A1.931,1.931,0,0,1,105.873,100.985Zm.625-.007a1.308,1.308,0,1,0,1.308-1.362A1.3,1.3,0,0,0,106.5,100.977Z" transform="translate(-93.001 -96.36)" fill="#fff"/>
      <path id="Path_43" data-name="Path 43" d="M111.417,99.585h.016a1.234,1.234,0,0,1,1.048-.549c1.019,0,1.254.736,1.254,1.6v2.184h-.626v-2.074c0-.6-.048-1.128-.775-1.128-.86,0-.916.8-.916,1.455v1.746h-.627V99.139h.627Z" transform="translate(-92.803 -96.36)" fill="#fff"/>
      <path id="Path_44" data-name="Path 44" d="M115.764,99.585h.015a1.236,1.236,0,0,1,1.049-.549c1.019,0,1.253.736,1.253,1.6v2.184h-.625v-2.074c0-.6-.048-1.128-.775-1.128-.861,0-.916.8-.916,1.455v1.746h-.627V99.139h.627Z" transform="translate(-92.627 -96.36)" fill="#fff"/>
      <path id="Path_45" data-name="Path 45" d="M120.065,101.185c0,.618.072,1.151.83,1.151s.83-.533.83-1.151v-2.05h.626v2.12c0,.978-.368,1.659-1.457,1.659s-1.456-.681-1.456-1.659v-2.12h.625Z" transform="translate(-92.453 -96.356)" fill="#fff"/>
      <path id="Path_46" data-name="Path 46" d="M124.038,101.111a1.191,1.191,0,0,0,1.2,1.229,1.259,1.259,0,0,0,1.119-.759l.532.3a1.857,1.857,0,0,1-1.7,1.034,1.781,1.781,0,0,1-1.8-1.895,1.783,1.783,0,1,1,3.53.086Zm2.231-.532a1.123,1.123,0,0,0-1.08-.963,1.165,1.165,0,0,0-1.121.963Z" transform="translate(-92.293 -96.36)" fill="#fff"/>
      <path id="Path_47" data-name="Path 47" d="M133.427,102.412h-.017a1.564,1.564,0,0,1-1.266.611,1.95,1.95,0,0,1,.006-3.883,1.586,1.586,0,0,1,1.26.627h.017v-3.3h.626v6.457h-.626Zm-2.4-1.37a1.271,1.271,0,0,0,1.206,1.4,1.254,1.254,0,0,0,1.229-1.393,1.23,1.23,0,0,0-1.236-1.331A1.247,1.247,0,0,0,131.024,101.042Z" transform="translate(-92.011 -96.464)" fill="#fff"/>
      <path id="Path_48" data-name="Path 48" d="M136.593,97.111l-.892,2-.422-.165.736-2.042Z" transform="translate(-91.813 -96.446)" fill="#fff"/>
      <path id="Path_49" data-name="Path 49" d="M138.528,101.185c0,.618.072,1.151.83,1.151s.83-.533.83-1.151v-2.05h.626v2.12c0,.978-.368,1.659-1.457,1.659s-1.456-.681-1.456-1.659v-2.12h.625Z" transform="translate(-91.707 -96.356)" fill="#fff"/>
      <path id="Path_50" data-name="Path 50" d="M142.845,102.864h-.625v-3.1h-.384v-.578h.384V97.863h.625v1.323h.659v.578h-.659Z" transform="translate(-91.548 -96.407)" fill="#fff"/>
      <path id="Path_51" data-name="Path 51" d="M145.234,97.82a.446.446,0,0,1-.892,0,.446.446,0,1,1,.892,0Zm-.134,5.064h-.625V99.206h.625Z" transform="translate(-91.447 -96.427)" fill="#fff"/>
      <path id="Path_52" data-name="Path 52" d="M147.313,102.921h-.626V96.464h.626Z" transform="translate(-91.352 -96.464)" fill="#fff"/>
      <path id="Path_53" data-name="Path 53" d="M149.664,97.82a.446.446,0,0,1-.893,0,.446.446,0,0,1,.893,0Zm-.134,5.064H148.9V99.206h.626Z" transform="translate(-91.268 -96.427)" fill="#fff"/>
      <path id="Path_54" data-name="Path 54" d="M151.8,102.864h-.626v-3.1h-.384v-.578h.384V97.863h.626v1.323h.658v.578H151.8Z" transform="translate(-91.186 -96.407)" fill="#fff"/>
      <path id="Path_55" data-name="Path 55" d="M153.64,101.19a1.19,1.19,0,0,0,1.2,1.229,1.258,1.258,0,0,0,1.118-.759l.532.3A1.856,1.856,0,0,1,154.8,103,1.78,1.78,0,0,1,153,101.1a1.783,1.783,0,1,1,3.53.086Zm2.23-.532a1.122,1.122,0,0,0-1.079-.963,1.164,1.164,0,0,0-1.12.963Zm-.3-3.288-1.2,1.206-.392-.22.931-1.284Z" transform="translate(-91.097 -96.439)" fill="#fff"/>
      <path id="Path_56" data-name="Path 56" d="M160.881,99.663h.015a1.553,1.553,0,0,1,1.268-.627,1.828,1.828,0,0,1,1.761,1.949,1.789,1.789,0,0,1-1.77,1.934,1.555,1.555,0,0,1-1.26-.618h-.015v2.582h-.625V99.139h.625Zm-.032,1.275a1.27,1.27,0,0,0,1.2,1.4,1.254,1.254,0,0,0,1.23-1.393,1.229,1.229,0,0,0-1.236-1.331A1.247,1.247,0,0,0,160.849,100.938Z" transform="translate(-90.804 -96.36)" fill="#fff"/>
      <path id="Path_57" data-name="Path 57" d="M165.581,101.185c0,.618.071,1.151.828,1.151s.831-.533.831-1.151v-2.05h.626v2.12c0,.978-.368,1.659-1.458,1.659s-1.454-.681-1.454-1.659v-2.12h.626Z" transform="translate(-90.614 -96.356)" fill="#fff"/>
      <path id="Path_58" data-name="Path 58" d="M169.2,96.464h.626v3.3h.014a1.583,1.583,0,0,1,1.26-.627,1.95,1.95,0,0,1,.008,3.883,1.551,1.551,0,0,1-1.268-.611h-.014v.509H169.2Zm.594,4.578a1.27,1.27,0,0,0,1.2,1.4,1.254,1.254,0,0,0,1.229-1.393,1.229,1.229,0,0,0-1.235-1.331A1.247,1.247,0,0,0,169.791,101.042Z" transform="translate(-90.443 -96.464)" fill="#fff"/>
      <path id="Path_59" data-name="Path 59" d="M174.553,102.921h-.625V96.464h.625Z" transform="translate(-90.252 -96.464)" fill="#fff"/>
      <path id="Path_60" data-name="Path 60" d="M176.9,97.82a.446.446,0,0,1-.892,0,.446.446,0,1,1,.892,0Zm-.132,5.064h-.625V99.206h.625Z" transform="translate(-90.168 -96.427)" fill="#fff"/>
      <path id="Path_61" data-name="Path 61" d="M181.743,104.883h-.626V102.3H181.1a1.559,1.559,0,0,1-1.26.618,1.788,1.788,0,0,1-1.77-1.926,1.828,1.828,0,0,1,1.762-1.957,1.557,1.557,0,0,1,1.267.627h.017v-.524h.626Zm-3.031-3.945a1.271,1.271,0,0,0,1.206,1.4,1.254,1.254,0,0,0,1.229-1.393,1.229,1.229,0,0,0-1.235-1.331A1.247,1.247,0,0,0,178.712,100.938Z" transform="translate(-90.084 -96.36)" fill="#fff"/>
      <path id="Path_62" data-name="Path 62" d="M183.668,101.185c0,.618.072,1.151.829,1.151s.831-.533.831-1.151v-2.05h.626v2.12c0,.978-.368,1.659-1.458,1.659s-1.454-.681-1.454-1.659v-2.12h.625Z" transform="translate(-89.883 -96.356)" fill="#fff"/>
      <path id="Path_63" data-name="Path 63" d="M187.64,101.111a1.192,1.192,0,0,0,1.2,1.229,1.261,1.261,0,0,0,1.121-.759l.532.3a1.857,1.857,0,0,1-1.7,1.034,1.953,1.953,0,1,1,1.73-1.808Zm2.232-.532a1.124,1.124,0,0,0-1.081-.963,1.165,1.165,0,0,0-1.12.963Z" transform="translate(-89.724 -96.36)" fill="#fff"/>
    </g>
    <g id="Group_8" data-name="Group 8" transform="translate(14.331 36.442)">
      <path id="Path_64" data-name="Path 64" d="M14.331,36.442V96.857H279.814V36.442ZM202.721,95.16H16.028V38.139H202.721Zm68.084-29.805a12.837,12.837,0,0,1-3.9-.139,9.387,9.387,0,0,0-2-.276c-.129,1.685.254,3.363,0,5.052a21.9,21.9,0,0,1-.458,2.5l-.109.281c-.931,2.936-4.065,6.291-6.86,9.211a6.339,6.339,0,0,1-1.868,2.8c-.678.353-1.351-.2-1.906.025-.829.385-1.516,2.284-2.414,3.9a3.752,3.752,0,0,1-.736,1.138,1.557,1.557,0,0,1-.735.175c-.642,0-1.162-.349-1.162-.778a.148.148,0,0,1,.006-.022h0a4.849,4.849,0,0,1,.247-.944,14.21,14.21,0,0,1,4.115-5.142c-2.1-2.129-4.328-4.1-6.493-6.155l-.016-.007c-2.3-2.317-5.082-4.7-7.541-7.112-1.695-1.484-3.327-3.183-4.965-4.729a.243.243,0,0,0-.337,0c-.111-.018-1.4,4.668-2.038,7.026a51.262,51.262,0,0,0-.947,5.516,3.149,3.149,0,0,1-1.9,2.29,1.323,1.323,0,0,1-.961-.113,1.094,1.094,0,0,1-.311-.712c-.132-1.077.707-3.042.977-4.364.656-2.4,1.232-4.836,1.953-7.212.264-1.008.394-1.345.571-2.033l-.062-.123a63.611,63.611,0,0,0-6.493.369c-2.019,2.417-3.716,4.987-5.77,7.393a44.566,44.566,0,0,1-5.481,6.2,2.075,2.075,0,0,1-1.906.6.873.873,0,0,1-.622-.516c-.269-1.259.933-2.147,1.724-3.02a101.344,101.344,0,0,0,9.422-10.468,2.639,2.639,0,0,0-1.058.091c-.541.091-1.392.392-1.784-.048a1.173,1.173,0,0,1-.171-1.148c.565-.9,1.93-.965,2.968-1.24l2-.273c3.843-4.011,7.167-8.67,11.755-11.645a2.085,2.085,0,0,1,2.333-.068.917.917,0,0,1,.3.964,7.549,7.549,0,0,1-.572,1.642c-.24.444-.379.808-.633,1.393-.433,1.152-.9,2.322-1.339,3.486a29.672,29.672,0,0,0-1.061,3.076.32.32,0,0,0,.338.048,106.268,106.268,0,0,1,13.794-8.45,4.439,4.439,0,0,0,1.06-.964.77.77,0,0,0,.126-.733c-.3-.553-.876-.591-1.316-.875-5.436-1.539-16.917-1.32-17.567-1.332a1.058,1.058,0,0,1-.705-.454.748.748,0,0,1,.154-.906c1.645-1.23,3.771-1.276,5.728-1.259,5.3-.105,12.29,1.2,14.9,2.39.983.467,2.343.91,2.418,2.48V52.4c-.345,1.932-2.624,2.4-3.948,3.4-3.151,1.7-6.308,3.373-9.423,5.19a7.28,7.28,0,0,0-1.7,1.1l2.329-.033c.917-.043,13.982-.22,20.844-.055l.043-.048a14.662,14.662,0,0,0-.449-2.428c-.294-.931-.294-.957-.294-.957l-.317-.842a6.151,6.151,0,0,0-.6-1.193,23.634,23.634,0,0,0-4.537-5.786c-1.638-1.394-4.654-4.05-4.771-4.337,0,0-.486-.557-.256-1,.113-.218.19-.523,1.058-.879,0,0,1.691-.665,1.906-.026a16.131,16.131,0,0,0,4.117,5.018A16,16,0,0,1,261.6,54.3c.266.483.6,1.027.882,1.549.011.045.085.149.173.335a25.242,25.242,0,0,1,1.457,4.578l.256,1.377c1.959.083,4.844-.081,6.525.163l0,0Z" transform="translate(-14.331 -36.442)" fill="#fff"/>
      <path id="Path_65" data-name="Path 65" d="M225.417,54.9c-2.3,2.374-4.522,4.866-6.579,7.393,1.656-.106,3.29-.337,4.883-.5.842-2.475,2.631-7.348,2.631-7.348C226.494,53.973,225.987,54.281,225.417,54.9Z" transform="translate(-6.069 -35.724)" fill="#fff"/>
      <path id="Path_66" data-name="Path 66" d="M253.543,63.631l-3.013-.185c-7.09-.415-15.523-.153-21.714.057-.565.115.09.724.408,1.045,4.875,4.714,9.823,9.2,14.685,13.638a5.537,5.537,0,0,0,1.782,1.336c1.168.617,1.993-.691,2.75-1.323a19.038,19.038,0,0,0,3.363-3.639l.066-.12a3.781,3.781,0,0,0,.4-.706,17.19,17.19,0,0,0,1.4-3.488c.034-.186.13-.514.13-.59a19.716,19.716,0,0,0,.038-3.96C253.769,65.033,253.641,64.317,253.543,63.631Z" transform="translate(-5.675 -35.36)" fill="#fff"/>
    </g>
  </g>
</svg>
