<svg xmlns="http://www.w3.org/2000/svg" width="181.699" height="181.699" viewBox="0 0 181.699 181.699">
  <g id="Group_1672" data-name="Group 1672" transform="translate(23464 4610)">
    <path id="Icon_material-play-circle-outline" data-name="Icon material-play-circle-outline" d="M93.85,3A90.85,90.85,0,1,0,184.7,93.85,90.883,90.883,0,0,0,93.85,3Zm0,163.53a72.68,72.68,0,1,1,72.68-72.68A72.776,72.776,0,0,1,93.85,166.53Z" transform="translate(-23467 -4613)" fill="#fff"/>
    <path id="Icon_awesome-play" data-name="Icon awesome-play" d="M51.695,26.15,8.819.8A5.814,5.814,0,0,0,0,5.833V56.517a5.842,5.842,0,0,0,8.819,5.031L51.695,36.212a5.841,5.841,0,0,0,0-10.061Z" transform="translate(-23391.977 -4550.336)" fill="#fff"/>
  </g>
</svg>
