<svg id="Group_76" data-name="Group 76" xmlns="http://www.w3.org/2000/svg" width="103.678" height="115.668" viewBox="0 0 103.678 115.668">
  <path id="Path_144" data-name="Path 144" d="M-95.112,14.8c.066-1.4-2.381.317-3.124-1.076-2.486-4.66-13.406-1.421-13.67-7.338-.332-7.431-5.279.569-5.592-.583a12.464,12.464,0,0,0-1.145-2.714c-1.521-3.533-6.1-4.755-6.1-4.755.294-4.546-3.913-1.414-4.876-5.636-.557-2.448-6.364-.281-7.92,1.524-1.469,1.7-1.81,4.975.713,5.248,0,0-.817,3.318-2.761,4.031-12.5,4.583-10.118,7.624-10.139,7.631-13.033,3.4-8.067-6.428-15.995-5.026,0,0,3.787,15.28,2.325,13.522-1.691-2.032-8.656.678-9.636.643-.835-.028-3.106-8.791-6.388-4.4-1.809,2.42-3.783.239-7.255,1.109-6.554,1.639,2.48,5.9-.7,6.454-5.225.916,1.7,3.993,1.7,3.993a31.74,31.74,0,0,1,12.373,4.8c.55.737,3.469,5.09,3.676,5.212.123.072-.249,8.664,6,10.424,1.642.463-2.177,33.7-6.957,34.376-3.255.46,2.634,2.258,1.975,3.381-1.288,2.191.994.95,2.464,2.1,3.4,2.676,6.958,2.437,7.532,3.065,4.246,4.656,13.753-2.724,14.609,3.868.344,2.648,3.769.261,4.478.629s9.4,3.866,11.743,1c.119-.146-5.629-15.736,11.938-12.2,3.343.673,17.3,8.082,18.625,2.674.1-.423,11.846-11.294,8.13-11.956-11.72-2.083-1-7.7-6.55-8.227-6.962-.656,2.417-5.734,2.452-5.787,1.14-1.7-2.918-3.11-3.064-4.57-.086-.85,2.983-2.93-.368-7.553-1.315-1.813-6.518-.944-6.518-.944s8.429-11.906,8.5-11.89c6.486,1.481,2.907-11.88,6.771-15.015C-80.11,14.516-95.134,15.237-95.112,14.8Z" transform="translate(189.32 8.4)" fill="#ffac02"/>
  <path id="Path_145" data-name="Path 145" d="M-104.838,69.563c-1.39,1.181,3.061,3.3-3.485,4.519-4.764.884-1.537,6.464-2.447,8.293-.923,1.854,3.065-1.31,1.163,1.906-.67,1.133,4.543,5.227,4.617,5.085C-102.783,85.051-102.135,67.266-104.838,69.563Z" transform="translate(204.392 26.298)" fill="#ffac02"/>
</svg>
