<svg xmlns="http://www.w3.org/2000/svg" width="121.115" height="103.409" viewBox="0 0 121.115 103.409">
  <g id="Group_655" data-name="Group 655" transform="translate(-240.846 -369.406)">
    <path id="Path_157" data-name="Path 157" d="M323.6,369.406a5.22,5.22,0,0,1,4.914,6.977l-.008-.009a6.915,6.915,0,0,0-4.905-2.025v-.007h0v.007a6.913,6.913,0,0,0-4.905,2.025l-.01.009a5.222,5.222,0,0,1,4.916-6.977Z" transform="translate(-23.251)" fill="#ffac02" fill-rule="evenodd"/>
    <path id="Path_158" data-name="Path 158" d="M339.77,373.545A5.218,5.218,0,0,1,344.486,381a6.918,6.918,0,0,0-4.44-1.6v-.006h0v.006a6.91,6.91,0,0,0-4.772,1.9,6.881,6.881,0,0,0-.7-2.026c-.016-.167-.025-.335-.025-.506a5.219,5.219,0,0,1,5.219-5.218Z" transform="translate(-28.1 -1.241)" fill="#ffac02" fill-rule="evenodd"/>
    <path id="Path_159" data-name="Path 159" d="M307.428,373.545a5.219,5.219,0,0,1,5.218,5.218c0,.171-.008.339-.025.506a6.835,6.835,0,0,0-.7,2.026,6.914,6.914,0,0,0-4.773-1.9v-.006h0v.006a6.917,6.917,0,0,0-4.44,1.6,5.218,5.218,0,0,1,4.716-7.454Z" transform="translate(-18.401 -1.241)" fill="#ffac02" fill-rule="evenodd"/>
    <path id="Path_160" data-name="Path 160" d="M323.6,378.912a5.218,5.218,0,0,1,3.863,8.726,6.916,6.916,0,0,0-3.862-1.169v-.007h0v.007a6.916,6.916,0,0,0-3.863,1.17,5.219,5.219,0,0,1,3.864-8.727Z" transform="translate(-23.251 -2.851)" fill="#ffac02" fill-rule="evenodd"/>
    <path id="Path_161" data-name="Path 161" d="M362.3,399.051h.066v-.006h0v.006h.1c-.057-.047-.112-.094-.167-.144v.007h0v.027h0v0h0v0h0v0h0v0h0v0h0v0h0v0h0v0h0v0h0v0h0v.039h0v.008h0v.01h0v0Zm-13.8-.819a6.919,6.919,0,0,1-3.269,2.13,6.923,6.923,0,0,1,3.656,4.3h.01l.048-.008.084-.013.056-.009.089-.013.023,0,.112-.016.025,0,.109-.013.026,0,.105-.012.035,0,.251-.023h.006c.088-.007.175-.013.263-.018h.014c.177-.01.353-.016.529-.018h.23c-.153-.128-.3-.263-.442-.4a6.915,6.915,0,0,1-2.025-4.906h0V399l0-.064v-.073l0-.056v-.079l0-.03v-.017c.01-.149.026-.3.046-.442Z" transform="translate(-31.305 -8.644)" fill="#ffac02" fill-rule="evenodd"/>
    <path id="Path_162" data-name="Path 162" d="M356.737,378.912a5.217,5.217,0,0,1,4.045,8.515c-.022-.013-.045-.027-.068-.04l-.006,0a6.866,6.866,0,0,0-1.628-.673h-.006c-.052-.015-.105-.028-.158-.041l-.012,0c-.109-.026-.219-.05-.329-.071h-.006l-.167-.029h0l-.154-.024-.036,0h0l-.058-.008h-.017l-.066-.008h-.017l-.156-.017-.023,0-.073-.006h-.016l-.055,0-.033,0-.156-.008h-.021l-.155,0h-.1v-.007h0v.007h-.184l-.076,0h-.016l-.166.008h-.023l-.059,0-.041,0-.03,0-.045,0-.064.006h-.01l-.083.008h0l-.069.008h0l-.051.006-.025,0-.052.007-.031.006-.041,0-.04.007-.041.006-.069.011h0l-.035.006-.041.008-.037.007-.051.009-.022,0-.056.012-.025.006-.075.017h-.01l-.068.016-.034.008-.041.01-.035.008-.039.01-.041.012h0l-.063.018h0l-.067.02h0l-.027.008-.052.016-.034.01-.031.01-.048.015-.02.007-.16.055-.027.01-.048.018-.018.006-.054.021-.013,0-.12.048-.064.027h0l-.045.019-.018.008-.054.024-.011.006-.052.022-.019.008-.172.082h0l-.052.025-.017.009-.049.025-.011.006c-.1.05-.2.1-.291.16l-.007,0-.051.03-.018.009-.045.028-.058.035-.055.036h0l-.047.03-.017.011-.047.031-.011.007-.047.031-.01.007-.155.108-.006,0-.048.035-.013.01-.045.033,0,0a5.218,5.218,0,0,1,3.653-8.945Zm-1.99,8.021-.12.048.12-.048Z" transform="translate(-33.188 -2.851)" fill="#ffac02" fill-rule="evenodd"/>
    <path id="Path_163" data-name="Path 163" d="M290.461,378.912a5.218,5.218,0,0,1,3.657,8.94,6.9,6.9,0,0,0-4.163-1.383v-.007h0v.007a6.915,6.915,0,0,0-3.535.963,5.218,5.218,0,0,1,4.042-8.52Z" transform="translate(-13.313 -2.851)" fill="#ffac02" fill-rule="evenodd"/>
    <path id="Path_164" data-name="Path 164" d="M379.422,406.6a9.154,9.154,0,0,1,4.423-1.007h.085q-.23-.192-.442-.4a6.91,6.91,0,0,1-1.841-3.3q-.418-.035-.861-.034H376.3a6.919,6.919,0,0,1,3.122,4.748Z" transform="translate(-40.619 -9.728)" fill="#ffac02" fill-rule="evenodd"/>
    <path id="Path_165" data-name="Path 165" d="M373.969,384.352a5.219,5.219,0,1,1-5.219,5.218,5.219,5.219,0,0,1,5.219-5.218Z" transform="translate(-38.355 -4.482)" fill="#ffac02" fill-rule="evenodd"/>
    <path id="Path_166" data-name="Path 166" d="M340.163,384.352a5.219,5.219,0,1,1-5.219,5.218,5.219,5.219,0,0,1,5.219-5.218Z" transform="translate(-28.218 -4.482)" fill="#ffac02" fill-rule="evenodd"/>
    <path id="Path_167" data-name="Path 167" d="M303.3,401.848h-1.85q-.418,0-.814.03a6.9,6.9,0,0,1-1.841,3.306c-.141.141-.289.277-.442.4h.085a11.324,11.324,0,0,1,1.93.159,6.921,6.921,0,0,1,2.931-3.9Z" transform="translate(-17.244 -9.729)" fill="#ffac02" fill-rule="evenodd"/>
    <path id="Path_168" data-name="Path 168" d="M307.034,384.352a5.219,5.219,0,1,1-5.219,5.218,5.219,5.219,0,0,1,5.219-5.218Z" transform="translate(-18.283 -4.482)" fill="#ffac02" fill-rule="evenodd"/>
    <path id="Path_169" data-name="Path 169" d="M272,401.848h-4.434c-.339,0-.665.015-.981.043a6.9,6.9,0,0,1-1.839,3.293c-.143.144-.294.282-.451.413h2.766v-.006h.015v.006a6.638,6.638,0,0,1,.858.055l.066.008c.081.013.145.022.188.03l.128.027.066.013.12.027c.176.039.351.088.523.144A6.922,6.922,0,0,1,272,401.848Z" transform="translate(-7.032 -9.729)" fill="#ffac02" fill-rule="evenodd"/>
    <path id="Path_170" data-name="Path 170" d="M273.229,384.352a5.219,5.219,0,1,1-5.219,5.218,5.219,5.219,0,0,1,5.219-5.218Z" transform="translate(-8.146 -4.482)" fill="#ffac02" fill-rule="evenodd"/>
    <path id="Path_171" data-name="Path 171" d="M255.749,392.152a5.219,5.219,0,1,1-5.219,5.218,5.219,5.219,0,0,1,5.219-5.218Z" transform="translate(-2.904 -6.821)" fill="#ffac02" fill-rule="evenodd"/>
    <path id="Path_172" data-name="Path 172" d="M244.737,429.825v-.017h0V418.3h0a.813.813,0,0,1,.284-.61.964.964,0,0,1,.637-.238h0a.973.973,0,0,1,.635.235.818.818,0,0,1,.285.614h0v37.8h0a2.68,2.68,0,0,0,2.67,2.67h0a2.683,2.683,0,0,0,2.381-1.462,2.663,2.663,0,0,0,.29-1.124v-.046h0V435.776a.843.843,0,0,1,.475-.743.96.96,0,0,1,.175-.07,1.029,1.029,0,0,1,.188-.034h0l.067,0h.078l3.394-13.4a9.653,9.653,0,0,1,.253-1.092c.032-.1.054-.177.069-.223.025-.078.05-.148.072-.211h0v-.007a7.484,7.484,0,0,1,.461-1.036c.006-.013.029-.05.106-.183v-.007c.029-.051.055-.1.076-.131h0l.034-.054a6.287,6.287,0,0,1,2.33-2.211c.2-.113.392-.208.563-.284a9.552,9.552,0,0,1,3.874-.723v-.007h0v.007h.094q-.235-.2-.452-.413a6.915,6.915,0,0,1-2.025-4.906h0v-.07a4.865,4.865,0,0,0-.664-.2,4.743,4.743,0,0,0-1.049-.12H245.66a4.826,4.826,0,0,0-4.27,2.6,4.751,4.751,0,0,0-.375.951,4.846,4.846,0,0,0-.164,1.035v.015h0l0,.109v.105h0V429.75h0v0h0a1.956,1.956,0,0,0,1.946,1.944h0a1.954,1.954,0,0,0,1.731-1.059,2.012,2.012,0,0,0,.151-.39,1.9,1.9,0,0,0,.064-.418v0Zm9.03,8.476v17.84h0a2.68,2.68,0,0,0,1.491,2.355,2.626,2.626,0,0,0,.543.2,2.675,2.675,0,0,0,.586.078h.055a2.681,2.681,0,0,0,2.668-2.671h0v-7.364H255.5l.549-2.142,1.9-7.431a3.694,3.694,0,0,1-4.184-.863Z" transform="translate(0 -12.067)" fill="#ffac02" fill-rule="evenodd"/>
    <path id="Path_173" data-name="Path 173" d="M389.811,456.33h0V439.595h-1.845v16.7h0a2.486,2.486,0,0,1-2.478,2.478h0a2.484,2.484,0,0,1-2.4-1.855,2.45,2.45,0,0,1-.079-.544h0v-.045h0v-15.5c.041,0,.081,0,.122.006h.029a1.807,1.807,0,0,0,.207-.012,3.5,3.5,0,0,0,.526-.069h.007c.143-.03.262-.06.358-.09q.172-.055.344-.128a3.67,3.67,0,0,0,1.141-.777l0,0,0,0h0a3.746,3.746,0,0,0,.261-.3,3.612,3.612,0,0,0,.8-2.084,1.705,1.705,0,0,0,.013-.207V421.887c0-.06,0-.119-.009-.176l0-.092v-.02h0v-.007a6.525,6.525,0,0,0-3.762-5.618h0l-.01,0h0l-.041-.018-.123-.055c-.071-.031-.131-.055-.179-.074a6.348,6.348,0,0,0-.961-.3l-.12-.027-.065-.013c-.1-.021-.1-.022-.128-.027s-.108-.018-.188-.03l-.066-.008a6.532,6.532,0,0,0-.858-.055v-.006h-.016v.006h-2.341l.132-.521a6.912,6.912,0,0,0,1.855-3.848,4.931,4.931,0,0,1,1.414-.847,6.626,6.626,0,0,1,1.068-.315,9.406,9.406,0,0,1,1.914-.182h9.1c2.442,0,4.278.748,5.311,2.413a5.613,5.613,0,0,1,.516,1.083,7.583,7.583,0,0,1,.335,1.317h0v0l0,.025,3.446,13.614a1.953,1.953,0,0,1-1.6,2.221h0a1.954,1.954,0,0,1-1.891-.779,1.909,1.909,0,0,1-.209-.361,1.986,1.986,0,0,1-.128-.408v0l-.006-.025-2.952-10.624h0a.912.912,0,0,0-.725-.7h0a.894.894,0,0,0-.734.207,1.021,1.021,0,0,0-.279,1.075l5.353,20.888h-5.105v16.7h0a2.486,2.486,0,0,1-2.478,2.478h0a2.49,2.49,0,0,1-2.209-1.355h0a2.491,2.491,0,0,1-.191-.5h0a2.373,2.373,0,0,1-.078-.543h0v-.045Z" transform="translate(-41.115 -12.067)" fill="#ffac02" fill-rule="evenodd"/>
    <path id="Path_174" data-name="Path 174" d="M391.338,392.152a5.219,5.219,0,1,0,5.219,5.218,5.22,5.22,0,0,0-5.219-5.218Z" transform="translate(-43.564 -6.821)" fill="#ffac02" fill-rule="evenodd"/>
    <path id="Path_175" data-name="Path 175" d="M350.85,409.779a9.721,9.721,0,0,1,1.652-.132h5.524c-.007.13-.011.261-.011.393h0a6.913,6.913,0,0,0,2.026,4.906c.143.144.295.281.451.413h-2.7v-.007h0v.007a6.431,6.431,0,0,0-1.15.1,7.108,7.108,0,0,0-5.791-5.455c0-.076,0-.153,0-.228Z" transform="translate(-32.987 -12.067)" fill="#ffac02" fill-rule="evenodd"/>
    <path id="Path_176" data-name="Path 176" d="M357.478,392.152a5.219,5.219,0,1,0,1.38,10.253,6.924,6.924,0,0,1,3.729-3.965,5.222,5.222,0,0,0-5.109-6.288Z" transform="translate(-33.41 -6.821)" fill="#ffac02" fill-rule="evenodd"/>
    <path id="Path_177" data-name="Path 177" d="M368.8,402.756a5.219,5.219,0,1,1-5.219,5.218,5.219,5.219,0,0,1,5.219-5.218Z" transform="translate(-36.805 -10.001)" fill="#ffac02" fill-rule="evenodd"/>
    <path id="Path_178" data-name="Path 178" d="M360.184,460.01v6.7h0a2.68,2.68,0,0,0,2.67,2.67h0a2.674,2.674,0,0,0,2.672-2.586v-.046h0V450.027a3.741,3.741,0,0,1-3.325.139l1.958,7.642.565,2.2h-4.538Zm7.185-12.254v18.987h0a2.681,2.681,0,0,0,1.491,2.355,2.623,2.623,0,0,0,.543.2,2.679,2.679,0,0,0,.586.077h.055a2.682,2.682,0,0,0,2.668-2.672h0v-37.8h0A.818.818,0,0,1,373,428.3a.968.968,0,0,1,.636-.238h0a.97.97,0,0,1,.635.235.82.82,0,0,1,.285.614h0v11.5h0a1.954,1.954,0,0,0,1.1,1.692,1.921,1.921,0,0,0,.392.142,1.878,1.878,0,0,0,.424.052h.029a1.953,1.953,0,0,0,1.944-1.945h0V425.066h0v-.105l0-.11h0a4.837,4.837,0,0,0-2.775-4.148,4.806,4.806,0,0,0-2.018-.454H359.262a4.75,4.75,0,0,0-.978.1,7.106,7.106,0,0,1-2.081,4.911q-.223.223-.464.426h.1v-.007h0v.007a9.82,9.82,0,0,1,3.984.743q.264.117.579.291A6.467,6.467,0,0,1,362.8,429l.035.055h0c.022.036.048.081.079.135v.006c.079.137.1.175.109.188a7.778,7.778,0,0,1,.474,1.066v.009c.023.064.048.137.074.218.015.046.038.121.07.228a9.955,9.955,0,0,1,.261,1.124L367.434,446l.028.16h0a3.746,3.746,0,0,1,.043.425,3.543,3.543,0,0,1,0,.407V447a3.741,3.741,0,0,1-.132.757Z" transform="translate(-34.453 -15.247)" fill="#ffac02" fill-rule="evenodd"/>
    <path id="Path_179" data-name="Path 179" d="M326.471,415.7a10.546,10.546,0,0,1,2.784-.349h.085q-.23-.193-.442-.4a6.913,6.913,0,0,1-2.025-4.906h0c0-.132,0-.264.01-.393h-7.321q.01.2.011.393h0a6.914,6.914,0,0,1-2.026,4.906q-.211.212-.442.4h.085a10.63,10.63,0,0,1,2.7.326,7.686,7.686,0,0,1,3.267-.723v-.007h0v.007a7.681,7.681,0,0,1,3.317.747Z" transform="translate(-22.868 -12.067)" fill="#ffac02" fill-rule="evenodd"/>
    <path id="Path_180" data-name="Path 180" d="M323.6,392.152a5.219,5.219,0,1,1-5.219,5.218,5.22,5.22,0,0,1,5.219-5.218Z" transform="translate(-23.251 -6.821)" fill="#ffac02" fill-rule="evenodd"/>
    <path id="Path_181" data-name="Path 181" d="M296.681,409.951c0-.057,0-.115,0-.172a9.715,9.715,0,0,0-1.652-.132h-5.585c.008.13.011.261.011.393h0a6.916,6.916,0,0,1-2.025,4.906c-.142.141-.289.276-.442.4h.085a9.821,9.821,0,0,1,3.613.627,7.108,7.108,0,0,1,5.992-6.027Z" transform="translate(-13.838 -12.067)" fill="#ffac02" fill-rule="evenodd"/>
    <path id="Path_182" data-name="Path 182" d="M289.738,392.152a5.219,5.219,0,1,1-1.448,10.234,6.922,6.922,0,0,0-3.655-3.917,5.22,5.22,0,0,1,5.1-6.318Z" transform="translate(-13.097 -6.821)" fill="#ffac02" fill-rule="evenodd"/>
    <path id="Path_183" data-name="Path 183" d="M311.266,420.268c-.207-.011-.417-.017-.634-.017h-3.294a7.107,7.107,0,0,1-2.082,4.973c-.148.148-.3.291-.464.424h2.844v-.007h.016v.006a6.743,6.743,0,0,1,.881.057l.069.008c.083.012.148.022.193.031.029,0,.031.006.112.024a7.66,7.66,0,0,1,2.245-5.389l.113-.111ZM295.3,425.351l-.076.3h.41c-.115-.1-.226-.195-.334-.3Z" transform="translate(-16.306 -15.247)" fill="#ffac02" fill-rule="evenodd"/>
    <path id="Path_184" data-name="Path 184" d="M308.5,402.756a5.219,5.219,0,0,1,1.021,10.338,7.106,7.106,0,0,0-6.239-5.258,5.22,5.22,0,0,1,5.218-5.08Z" transform="translate(-18.722 -10.001)" fill="#ffac02" fill-rule="evenodd"/>
    <path id="Path_185" data-name="Path 185" d="M273.618,466.925h0V450.19h1.845v16.7h0a2.487,2.487,0,0,0,2.478,2.478h0a2.489,2.489,0,0,0,2.4-1.854,2.451,2.451,0,0,0,.079-.545h0v-.044h0V451.708a3.741,3.741,0,0,1-.875.123l-.087,0v.006h0v-.006a3.727,3.727,0,0,1-1.248-.211c-.091-.033-.2-.079-.335-.142a3.3,3.3,0,0,1-.314-.164,3.854,3.854,0,0,1-.765-.584,3.794,3.794,0,0,1-.793-1.179c-.067-.155-.114-.274-.139-.354q-.046-.146-.092-.367h0v-.006a3.6,3.6,0,0,1-.07-.539,1.957,1.957,0,0,1-.013-.214h0v-15.72c0-.052,0-.1.007-.154a6.734,6.734,0,0,1,3.822-5.9,6.666,6.666,0,0,1,2.889-.657v-.007h0v.007h2.771c-.161-.134-.316-.276-.464-.424a7.1,7.1,0,0,1-2.038-4.236l-.6-.241a6.457,6.457,0,0,0-1.068-.315,14.494,14.494,0,0,0-2.416-.2h-8.6c-2.441,0-4.277.768-5.312,2.432a5.674,5.674,0,0,0-.516,1.083c-.363,1.018-.6,2.379-.86,3.4l-2.926,11.56a1.953,1.953,0,0,0,1.6,2.221h0a1.955,1.955,0,0,0,1.89-.778,1.933,1.933,0,0,0,.336-.771v0l.006-.024,2.954-10.624h0a.913.913,0,0,1,.723-.7h0a.9.9,0,0,1,.734.206,1.023,1.023,0,0,1,.279,1.076l-5.352,20.888h5.105v16.7h0a2.487,2.487,0,0,0,2.478,2.478h0a2.49,2.49,0,0,0,2.209-1.355h0a2.43,2.43,0,0,0,.19-.5h0a2.415,2.415,0,0,0,.079-.543h0v-.044Z" transform="translate(-5.85 -15.239)" fill="#ffac02" fill-rule="evenodd"/>
    <path id="Path_186" data-name="Path 186" d="M278.381,402.756a5.219,5.219,0,1,1-5.219,5.218,5.22,5.22,0,0,1,5.219-5.218Z" transform="translate(-9.691 -10.001)" fill="#ffac02" fill-rule="evenodd"/>
    <path id="Path_187" data-name="Path 187" d="M333.361,420.277c.248-.017.5-.026.765-.026h3.2a7.109,7.109,0,0,0,2.082,5.013q.218.218.455.417h-.087a9.8,9.8,0,0,0-4.088.8c.018-.22.028-.443.028-.669h0a7.666,7.666,0,0,0-2.245-5.436l-.1-.1Zm16.089,5.03.1.389c-.139,0-.279-.006-.421-.006v-.007h0v.007h-.1c.146-.123.286-.25.422-.383Z" transform="translate(-27.743 -15.247)" fill="#ffac02" fill-rule="evenodd"/>
    <path id="Path_188" data-name="Path 188" d="M338.721,402.756a5.219,5.219,0,0,0-1.1,10.32,7.11,7.11,0,0,1,6.321-5.207,5.218,5.218,0,0,0-5.217-5.112Z" transform="translate(-27.785 -10.001)" fill="#ffac02" fill-rule="evenodd"/>
    <path id="Path_189" data-name="Path 189" d="M345.487,478.534h0V461.327h-1.9V478.5h0a2.559,2.559,0,0,1-2.548,2.549h0a2.559,2.559,0,0,1-2.467-1.907,2.47,2.47,0,0,1-.081-.559h0v-.046h0V462.954l.026.006.116.019.092.014c.113.015.23.027.354.032.062.007.125.011.188.013h.032a2.05,2.05,0,0,0,.229-.013,3.983,3.983,0,0,0,.582-.075l.008,0v0c.159-.033.291-.067.4-.1.127-.041.255-.088.38-.143a4.078,4.078,0,0,0,1.264-.861l0,0,0,0h0a4.052,4.052,0,0,0,.29-.328c.093-.116.179-.234.255-.352a4.018,4.018,0,0,0,.633-1.958,1.916,1.916,0,0,0,.014-.23V442.03a7.334,7.334,0,0,0-4.184-6.555h0l-.01-.006h0a.442.442,0,0,0-.046-.019c-.036-.018-.082-.037-.135-.06-.078-.034-.145-.062-.2-.083a7.211,7.211,0,0,0-1.065-.333l-.132-.029-.074-.014c-.109-.023-.107-.025-.142-.031l-.208-.033-.074-.009a7.393,7.393,0,0,0-.95-.061v-.006h-.018v.006h-2.454a7.061,7.061,0,0,1,.284-.884,7.645,7.645,0,0,0,1.137-1.764,4.933,4.933,0,0,1,1.7-1.1,6.633,6.633,0,0,1,1.1-.325,9.666,9.666,0,0,1,1.968-.187h9.359c2.51,0,4.4.769,5.462,2.48a5.727,5.727,0,0,1,.53,1.114,7.8,7.8,0,0,1,.344,1.354h0v0l0,.026,3.544,14a2.008,2.008,0,0,1-1.646,2.283h0a2.014,2.014,0,0,1-1.945-.8,1.968,1.968,0,0,1-.214-.372,1.928,1.928,0,0,1-.132-.419v0l-.006-.026-3.036-10.923h0a.937.937,0,0,0-.744-.72h0a.917.917,0,0,0-.756.212,1.051,1.051,0,0,0-.286,1.106l5.5,21.479h-5.25V478.5h0a2.56,2.56,0,0,1-2.548,2.549h0a2.56,2.56,0,0,1-2.271-1.393h0a2.534,2.534,0,0,1-.2-.512h0a2.557,2.557,0,0,1-.081-.559h0v-.046Z" transform="translate(-27.835 -18.331)" fill="#ffac02" fill-rule="evenodd"/>
    <path id="Path_190" data-name="Path 190" d="M346.9,412.543a5.366,5.366,0,1,0,5.367,5.366,5.367,5.367,0,0,0-5.367-5.366Z" transform="translate(-30.193 -12.936)" fill="#ffac02" fill-rule="evenodd"/>
    <path id="Path_191" data-name="Path 191" d="M300.1,412.485a5.366,5.366,0,1,1-5.366,5.366,5.367,5.367,0,0,1,5.366-5.366Z" transform="translate(-16.161 -12.918)" fill="#ffac02" fill-rule="evenodd"/>
    <path id="Path_192" data-name="Path 192" d="M288.78,451.223v-.017h0V439.378h0a.839.839,0,0,1,.293-.628.987.987,0,0,1,.655-.244h0a1,1,0,0,1,.653.242.841.841,0,0,1,.293.632h0v38.864h0a2.754,2.754,0,0,0,2.745,2.746h0a2.757,2.757,0,0,0,2.448-1.5,2.724,2.724,0,0,0,.3-1.156v-.048h0V457.342a.868.868,0,0,1,.488-.763,1.025,1.025,0,0,1,.181-.073,1.1,1.1,0,0,1,.193-.036h.208c.037,0,.073.011.107.019s.063.016.1.027l.01,0,.006,0h0l0,0h0l.02.008h0l.018.007.015.007.018.008.014.007h0l.015.008.019.01.006,0h0l.015.006.02.012.006,0,.011.006,0,0h0a.914.914,0,0,1,.261.24l.039.057h0a.821.821,0,0,1,.12.426h0v20.939h0a2.765,2.765,0,0,0,2.091,2.628,2.783,2.783,0,0,0,.6.079h.057a2.756,2.756,0,0,0,2.743-2.746h0v-15.41a4.06,4.06,0,0,1-1.108.179l-.093,0v.006h0v-.006a4.035,4.035,0,0,1-1.344-.226c-.1-.036-.22-.086-.363-.153-.118-.055-.23-.115-.337-.177a3.958,3.958,0,0,1-1.679-1.9c-.073-.169-.122-.3-.149-.381a4,4,0,0,1-.1-.4h0v-.007a3.774,3.774,0,0,1-.075-.581,1.779,1.779,0,0,1-.014-.23h0V442.012c0-.057,0-.111.007-.166a7.26,7.26,0,0,1,4.121-6.361,7.167,7.167,0,0,1,3.113-.708v-.008h0v.008h2.987c-.173-.146-.34-.3-.5-.458a7.664,7.664,0,0,1-2.03-3.615c-.129-.041-.26-.078-.392-.108a4.956,4.956,0,0,0-1.079-.122H289.73a4.961,4.961,0,0,0-4.391,2.672,4.882,4.882,0,0,0-.553,2.043v.015h0l0,.114v.106h0v15.72h0a2.01,2.01,0,0,0,2,2h0a2.007,2.007,0,0,0,1.934-1.489,1.943,1.943,0,0,0,.066-.431v0Z" transform="translate(-13.174 -18.313)" fill="#ffac02" fill-rule="evenodd"/>
    <path id="Path_193" data-name="Path 193" d="M323.322,419.938a5.785,5.785,0,1,1-5.785,5.784,5.786,5.786,0,0,1,5.785-5.784Z" transform="translate(-22.998 -15.153)" fill="#ffac02" fill-rule="evenodd"/>
    <path id="Path_194" data-name="Path 194" d="M311.116,461.7v-.019h0V448.926h0a.908.908,0,0,1,.316-.677,1.07,1.07,0,0,1,.7-.263h0a1.077,1.077,0,0,1,.7.261.906.906,0,0,1,.315.68h0v41.9h0a2.971,2.971,0,0,0,2.959,2.959v0h0a2.971,2.971,0,0,0,2.639-1.619,2.934,2.934,0,0,0,.321-1.246v-.05h0V468.292a.934.934,0,0,1,.527-.823,1.131,1.131,0,0,1,.195-.078,1.187,1.187,0,0,1,.208-.038h0c.013,0,.039,0,.075,0h.148a.866.866,0,0,1,.116.02,1.006,1.006,0,0,1,.1.029l.011,0,.007,0h0l.006,0h0l.021.008h0l.02.007.016.007.02.008.015.009h0l.016.007.021.01.006,0h0l.016.008.021.012.006,0,.011.006.006,0h0a1,1,0,0,1,.281.259.7.7,0,0,1,.041.063h0a.874.874,0,0,1,.13.458h0v22.573h0a2.972,2.972,0,0,0,2.254,2.831,2.874,2.874,0,0,0,.65.086h.058v0h0v0h0a2.973,2.973,0,0,0,2.959-2.961h0v-41.9h0a.906.906,0,0,1,.315-.677,1.074,1.074,0,0,1,.7-.263h0a1.078,1.078,0,0,1,.7.261.906.906,0,0,1,.315.68h0v12.749h0a2.167,2.167,0,0,0,1.22,1.876,2.092,2.092,0,0,0,.435.157,2.047,2.047,0,0,0,.471.059h.032a2.163,2.163,0,0,0,2.155-2.155h0V444.668h0v-.116l0-.122h0a5.358,5.358,0,0,0-3.076-4.6,5.223,5.223,0,0,0-1.074-.37,5.285,5.285,0,0,0-1.162-.133H312.139a5.335,5.335,0,0,0-5.33,5.082v.015h0l0,.122v.116h0v16.944h0v0h0a2.166,2.166,0,0,0,2.156,2.154h0a2.167,2.167,0,0,0,1.919-1.173,2.217,2.217,0,0,0,.166-.432,2.109,2.109,0,0,0,.071-.464v0Z" transform="translate(-19.779 -20.968)" fill="#ffac02" fill-rule="evenodd"/>
  </g>
</svg>
